<svg width="30" height="30" viewBox="0 0 30 30" fill="none" xmlns="http://www.w3.org/2000/svg">
<path d="M21.6125 11.6375C21.4969 11.5216 21.3595 11.4297 21.2083 11.367C21.0571 11.3043 20.895 11.272 20.7313 11.272C20.5676 11.272 20.4055 11.3043 20.2543 11.367C20.103 11.4297 19.9657 11.5216 19.85 11.6375L15 16.4875L10.15 11.6375C9.91631 11.4038 9.59932 11.2725 9.26878 11.2725C8.93825 11.2725 8.62125 11.4038 8.38753 11.6375C8.15381 11.8712 8.02251 12.1882 8.02251 12.5188C8.02251 12.8493 8.15381 13.1663 8.38753 13.4L14.125 19.1375C14.2407 19.2534 14.378 19.3453 14.5293 19.4081C14.6805 19.4708 14.8426 19.5031 15.0063 19.5031C15.17 19.5031 15.3321 19.4708 15.4833 19.4081C15.6345 19.3453 15.7719 19.2534 15.8875 19.1375L21.625 13.4C22.1 12.925 22.1 12.125 21.6125 11.6375Z" fill="#868686"/>
</svg>
