<svg width="30" height="30" viewBox="0 0 30 30" fill="none" xmlns="http://www.w3.org/2000/svg">
<path d="M15 30C12.95 30 11.0125 29.606 9.1875 28.818C7.3625 28.031 5.769 26.956 4.407 25.593C3.044 24.231 1.969 22.6375 1.182 20.8125C0.394 18.9875 0 17.05 0 15C0 12.925 0.394 10.9815 1.182 9.1695C1.969 7.3565 3.044 5.769 4.407 4.407C5.769 3.044 7.3625 1.9685 9.1875 1.1805C11.0125 0.3935 12.95 0 15 0C17.075 0 19.0185 0.3935 20.8305 1.1805C22.6435 1.9685 24.231 3.044 25.593 4.407C26.956 5.769 28.031 7.3565 28.818 9.1695C29.606 10.9815 30 12.925 30 15V17.175C30 18.65 29.494 19.906 28.482 20.943C27.469 21.981 26.225 22.5 24.75 22.5C23.85 22.5 23.0125 22.3 22.2375 21.9C21.4625 21.5 20.825 20.975 20.325 20.325C19.65 21 18.8565 21.5315 17.9445 21.9195C17.0315 22.3065 16.05 22.5 15 22.5C12.925 22.5 11.1565 21.7685 9.6945 20.3055C8.2315 18.8435 7.5 17.075 7.5 15C7.5 12.925 8.2315 11.156 9.6945 9.693C11.1565 8.231 12.925 7.5 15 7.5C17.075 7.5 18.844 8.231 20.307 9.693C21.769 11.156 22.5 12.925 22.5 15V17.175C22.5 17.9 22.725 18.4685 23.175 18.8805C23.625 19.2935 24.15 19.5 24.75 19.5C25.35 19.5 25.875 19.2935 26.325 18.8805C26.775 18.4685 27 17.9 27 17.175V15C27 11.725 25.8185 8.906 23.4555 6.543C21.0935 4.181 18.275 3 15 3C11.725 3 8.906 4.181 6.543 6.543C4.181 8.906 3 11.725 3 15C3 18.275 4.181 21.0935 6.543 23.4555C8.906 25.8185 11.725 27 15 27H21C21.425 27 21.781 27.144 22.068 27.432C22.356 27.719 22.5 28.075 22.5 28.5C22.5 28.925 22.356 29.281 22.068 29.568C21.781 29.856 21.425 30 21 30H15ZM15 19.5C16.25 19.5 17.3125 19.0625 18.1875 18.1875C19.0625 17.3125 19.5 16.25 19.5 15C19.5 13.75 19.0625 12.6875 18.1875 11.8125C17.3125 10.9375 16.25 10.5 15 10.5C13.75 10.5 12.6875 10.9375 11.8125 11.8125C10.9375 12.6875 10.5 13.75 10.5 15C10.5 16.25 10.9375 17.3125 11.8125 18.1875C12.6875 19.0625 13.75 19.5 15 19.5Z" fill="white"/>
</svg>
