<svg width="18" height="20" viewBox="0 0 18 20" fill="none" xmlns="http://www.w3.org/2000/svg">
<path d="M5.55404 2.22434C5.25944 2.22434 4.9769 2.34137 4.76858 2.54969C4.56027 2.758 4.44323 3.04054 4.44323 3.33515C4.44323 3.62975 4.56027 3.91229 4.76858 4.12061C4.9769 4.32893 5.25944 4.44596 5.55404 4.44596C5.84865 4.44596 6.13119 4.32893 6.3395 4.12061C6.54782 3.91229 6.66485 3.62975 6.66485 3.33515C6.66485 3.04054 6.54782 2.758 6.3395 2.54969C6.13119 2.34137 5.84865 2.22434 5.55404 2.22434ZM2.41045 2.22434C2.63995 1.57392 3.06554 1.01071 3.62857 0.612322C4.19159 0.213937 4.86433 0 5.55404 0C6.24376 0 6.91649 0.213937 7.47952 0.612322C8.04254 1.01071 8.46814 1.57392 8.69763 2.22434H16.6621C16.9567 2.22434 17.2393 2.34137 17.4476 2.54969C17.6559 2.758 17.7729 3.04054 17.7729 3.33515C17.7729 3.62975 17.6559 3.91229 17.4476 4.12061C17.2393 4.32893 16.9567 4.44596 16.6621 4.44596H8.69763C8.46814 5.09637 8.04254 5.65959 7.47952 6.05797C6.91649 6.45636 6.24376 6.6703 5.55404 6.6703C4.86433 6.6703 4.19159 6.45636 3.62857 6.05797C3.06554 5.65959 2.63995 5.09637 2.41045 4.44596H1.11081C0.816204 4.44596 0.533666 4.32893 0.325349 4.12061C0.117031 3.91229 0 3.62975 0 3.33515C0 3.04054 0.117031 2.758 0.325349 2.54969C0.533666 2.34137 0.816204 2.22434 1.11081 2.22434H2.41045ZM12.2189 8.88919C11.9243 8.88919 11.6418 9.00622 11.4334 9.21454C11.2251 9.42286 11.1081 9.7054 11.1081 10C11.1081 10.2946 11.2251 10.5771 11.4334 10.7855C11.6418 10.9938 11.9243 11.1108 12.2189 11.1108C12.5135 11.1108 12.796 10.9938 13.0044 10.7855C13.2127 10.5771 13.3297 10.2946 13.3297 10C13.3297 9.7054 13.2127 9.42286 13.0044 9.21454C12.796 9.00622 12.5135 8.88919 12.2189 8.88919ZM9.07531 8.88919C9.3048 8.23878 9.73039 7.67556 10.2934 7.27717C10.8564 6.87879 11.5292 6.66485 12.2189 6.66485C12.9086 6.66485 13.5813 6.87879 14.1444 7.27717C14.7074 7.67556 15.133 8.23878 15.3625 8.88919H16.6621C16.9567 8.88919 17.2393 9.00622 17.4476 9.21454C17.6559 9.42286 17.7729 9.7054 17.7729 10C17.7729 10.2946 17.6559 10.5771 17.4476 10.7855C17.2393 10.9938 16.9567 11.1108 16.6621 11.1108H15.3625C15.133 11.7612 14.7074 12.3244 14.1444 12.7228C13.5813 13.1212 12.9086 13.3351 12.2189 13.3351C11.5292 13.3351 10.8564 13.1212 10.2934 12.7228C9.73039 12.3244 9.3048 11.7612 9.07531 11.1108H1.11081C0.816204 11.1108 0.533666 10.9938 0.325349 10.7855C0.117031 10.5771 0 10.2946 0 10C0 9.7054 0.117031 9.42286 0.325349 9.21454C0.533666 9.00622 0.816204 8.88919 1.11081 8.88919H9.07531ZM5.55404 15.554C5.25944 15.554 4.9769 15.6711 4.76858 15.8794C4.56027 16.0877 4.44323 16.3702 4.44323 16.6649C4.44323 16.9595 4.56027 17.242 4.76858 17.4503C4.9769 17.6586 5.25944 17.7757 5.55404 17.7757C5.84865 17.7757 6.13119 17.6586 6.3395 17.4503C6.54782 17.242 6.66485 16.9595 6.66485 16.6649C6.66485 16.3702 6.54782 16.0877 6.3395 15.8794C6.13119 15.6711 5.84865 15.554 5.55404 15.554ZM2.41045 15.554C2.63995 14.9036 3.06554 14.3404 3.62857 13.942C4.19159 13.5436 4.86433 13.3297 5.55404 13.3297C6.24376 13.3297 6.91649 13.5436 7.47952 13.942C8.04254 14.3404 8.46814 14.9036 8.69763 15.554H16.6621C16.9567 15.554 17.2393 15.6711 17.4476 15.8794C17.6559 16.0877 17.7729 16.3702 17.7729 16.6649C17.7729 16.9595 17.6559 17.242 17.4476 17.4503C17.2393 17.6586 16.9567 17.7757 16.6621 17.7757H8.69763C8.46814 18.4261 8.04254 18.9893 7.47952 19.3877C6.91649 19.7861 6.24376 20 5.55404 20C4.86433 20 4.19159 19.7861 3.62857 19.3877C3.06554 18.9893 2.63995 18.4261 2.41045 17.7757H1.11081C0.816204 17.7757 0.533666 17.6586 0.325349 17.4503C0.117031 17.242 0 16.9595 0 16.6649C0 16.3702 0.117031 16.0877 0.325349 15.8794C0.533666 15.6711 0.816204 15.554 1.11081 15.554H2.41045Z" fill="#E8E8E8"/>
</svg>
