<svg width="31" height="30" viewBox="0 0 31 30" fill="none" xmlns="http://www.w3.org/2000/svg">
<path d="M15.3724 0C13.3537 0 11.3547 0.397619 9.48964 1.17015C7.62457 1.94269 5.92993 3.07501 4.50247 4.50247C1.61959 7.38536 0 11.2954 0 15.3724C0 22.167 4.41188 27.9317 10.5147 29.9762C11.2833 30.0992 11.5293 29.6226 11.5293 29.2076V26.6096C7.27115 27.532 6.36418 24.5497 6.36418 24.5497C5.65704 22.7665 4.65784 22.29 4.65784 22.29C3.25895 21.3369 4.76545 21.3676 4.76545 21.3676C6.30269 21.4752 7.11742 22.951 7.11742 22.951C8.45482 25.2876 10.7146 24.5958 11.5908 24.2269C11.7291 23.2277 12.1288 22.5513 12.5593 22.167C9.14658 21.7827 5.56481 20.4607 5.56481 14.6038C5.56481 12.8974 6.14896 11.5293 7.14817 10.4379C6.99444 10.0536 6.45641 8.45482 7.30189 6.37955C7.30189 6.37955 8.59317 5.96449 11.5293 7.94753C12.7437 7.60934 14.0658 7.44024 15.3724 7.44024C16.6791 7.44024 18.0011 7.60934 19.2155 7.94753C22.1516 5.96449 23.4429 6.37955 23.4429 6.37955C24.2884 8.45482 23.7504 10.0536 23.5966 10.4379C24.5958 11.5293 25.18 12.8974 25.18 14.6038C25.18 20.476 21.5829 21.7673 18.1548 22.1516C18.7082 22.6282 19.2155 23.5659 19.2155 24.9955V29.2076C19.2155 29.6226 19.4615 30.1145 20.2455 29.9762C26.3483 27.9163 30.7448 22.167 30.7448 15.3724C30.7448 13.3537 30.3472 11.3547 29.5747 9.48964C28.8021 7.62457 27.6698 5.92993 26.2423 4.50247C24.8149 3.07501 23.1202 1.94269 21.2552 1.17015C19.3901 0.397619 17.3911 0 15.3724 0Z" fill="white"/>
</svg>
