<svg width="30" height="30" viewBox="0 0 30 30" fill="none" xmlns="http://www.w3.org/2000/svg">
<path d="M25.5619 23.3396C25.5616 24.567 24.5666 25.5618 23.3392 25.5618C22.1115 25.5618 21.1164 24.5667 21.1164 23.339V18.6005C21.1164 16.9406 21.0867 14.8037 18.8045 14.8037C16.4893 14.8037 16.1351 16.6123 16.1351 18.4797V23.3389C16.1351 24.5663 15.14 25.5614 13.9126 25.5614C12.6852 25.5614 11.6902 24.5663 11.6902 23.3389V13.3798C11.6902 12.2014 12.6454 11.2462 13.8237 11.2462H14.9791C15.5194 11.2462 15.9573 11.6841 15.9573 12.2244V13.1646C15.9573 13.1855 15.9743 13.2025 15.9953 13.2025C16.0088 13.2025 16.0213 13.1954 16.0281 13.1837C16.4547 12.462 17.0676 11.8681 17.8026 11.4644C18.5441 11.0572 19.3821 10.8587 20.2274 10.8901C24.7327 10.8901 25.5633 13.8535 25.5633 17.7087L25.5619 23.3396ZM6.67453 9.28953C5.24988 9.28976 4.09477 8.135 4.09453 6.71035C4.0943 5.2857 5.24895 4.13058 6.67359 4.13035C8.09824 4.13 9.25336 5.28476 9.25359 6.70941C9.25372 7.39356 8.98207 8.04973 8.4984 8.53359C8.01474 9.01746 7.35868 9.28937 6.67453 9.28953ZM8.89701 25.5618C8.89705 25.5619 8.89702 25.5619 8.89697 25.5619H5.75595C5.03325 25.5619 4.44738 24.9761 4.44738 24.2534V13.471C4.44738 12.2423 5.44346 11.2462 6.67219 11.2462C7.90091 11.2462 8.89699 12.2423 8.89699 13.471V25.5618C8.89699 25.5618 8.897 25.5618 8.89701 25.5618ZM27.7774 0.00218343H2.21379C1.00559 -0.0114103 0.0147656 0.956441 0 2.16464V27.8349C0.0142969 29.0437 1.005 30.0125 2.21367 29.9998H27.7774C28.9887 30.0148 29.9832 29.046 30 27.8349V2.16265C29.9828 0.952105 28.9881 -0.0156291 27.7774 0.000191237" fill="white"/>
</svg>
