<svg width="500" height="500" viewBox="0 0 500 500" fill="none" xmlns="http://www.w3.org/2000/svg">
<g clip-path="url(#clip0_162_14)">
<rect width="500" height="500" rx="40" fill="#D4F357"/>
<path d="M574.418 -77C565.82 -24.979 474.882 472.684 -252.093 498.982C132.849 505.192 584 745 584 745L574.418 -77Z" fill="#47CB74"/>
<path d="M-14.4179 530C-5.81958 477.979 85.1183 -19.6844 812.093 -45.9824C427.151 -52.1921 -24 -292 -24 -292L-14.4179 530Z" fill="#47CB74"/>
<path d="M104.969 89.0938H170.594V359.406H201.062V393H104.969V359.406H134.266V122.688H104.969V89.0938ZM353.406 244.953C353.406 239.484 352.104 234.862 349.5 231.086C347.026 227.18 343.771 224.055 339.734 221.711C335.698 219.237 331.206 217.479 326.258 216.438C321.31 215.266 316.492 214.68 311.805 214.68C306.596 214.68 301.779 215.266 297.352 216.438C293.055 217.609 289.344 219.302 286.219 221.516C283.094 223.729 280.62 226.464 278.797 229.719C277.104 232.844 276.258 236.359 276.258 240.266C276.258 247.036 278.276 252.44 282.312 256.477C286.479 260.383 293.38 264.029 303.016 267.414L341.883 281.086C358.549 286.685 370.724 294.302 378.406 303.938C386.089 313.573 389.93 325.096 389.93 338.508C389.93 347.492 388.107 355.76 384.461 363.312C380.945 370.734 375.867 377.115 369.227 382.453C362.716 387.661 354.839 391.698 345.594 394.562C336.349 397.557 326.062 399.055 314.734 399.055C298.979 399.055 286.154 396.516 276.258 391.438C266.362 386.359 258.745 379.654 253.406 371.32H233.094V337.727H273.523C273.523 343.326 274.695 348.143 277.039 352.18C279.513 356.086 282.703 359.276 286.609 361.75C290.646 364.224 295.138 366.047 300.086 367.219C305.164 368.391 310.307 368.977 315.516 368.977C320.594 368.977 325.477 368.391 330.164 367.219C334.852 365.917 338.953 364.094 342.469 361.75C346.115 359.276 348.979 356.346 351.062 352.961C353.146 349.576 354.188 345.734 354.188 341.438C354.188 334.927 352.039 329.393 347.742 324.836C343.576 320.279 336.414 316.177 326.258 312.531L287.586 298.078C271.831 292.479 260.112 285.383 252.43 276.789C244.878 268.065 241.102 257.193 241.102 244.172C241.102 235.578 242.664 227.635 245.789 220.344C249.044 213.052 253.667 206.802 259.656 201.594C265.776 196.255 273.198 192.089 281.922 189.094C290.646 186.099 300.607 184.602 311.805 184.602C326.258 184.602 338.367 186.62 348.133 190.656C357.898 194.693 366.688 201.594 374.5 211.359H393.445V244.953H353.406Z" fill="#79118A"/>
<path d="M104.969 89.0938V84.0938H99.9688V89.0938H104.969ZM170.594 89.0938H175.594V84.0938H170.594V89.0938ZM170.594 359.406H165.594V364.406H170.594V359.406ZM201.062 359.406H206.062V354.406H201.062V359.406ZM201.062 393V398H206.062V393H201.062ZM104.969 393H99.9688V398H104.969V393ZM104.969 359.406V354.406H99.9688V359.406H104.969ZM134.266 359.406V364.406H139.266V359.406H134.266ZM134.266 122.688H139.266V117.688H134.266V122.688ZM104.969 122.688H99.9688V127.688H104.969V122.688ZM104.969 94.0938H170.594V84.0938H104.969V94.0938ZM165.594 89.0938V359.406H175.594V89.0938H165.594ZM170.594 364.406H201.062V354.406H170.594V364.406ZM196.062 359.406V393H206.062V359.406H196.062ZM201.062 388H104.969V398H201.062V388ZM109.969 393V359.406H99.9688V393H109.969ZM104.969 364.406H134.266V354.406H104.969V364.406ZM139.266 359.406V122.688H129.266V359.406H139.266ZM134.266 117.688H104.969V127.688H134.266V117.688ZM109.969 122.688V89.0938H99.9688V122.688H109.969ZM353.406 244.953H348.406V249.953H353.406V244.953ZM349.5 231.086L345.276 233.761L345.328 233.844L345.384 233.925L349.5 231.086ZM339.734 221.711L337.122 225.974L337.172 226.005L337.224 226.035L339.734 221.711ZM326.258 216.438L325.105 221.303L325.166 221.317L325.228 221.33L326.258 216.438ZM297.352 216.438L296.072 211.604L296.054 211.609L296.036 211.614L297.352 216.438ZM278.797 229.719L274.434 227.276L274.417 227.306L274.4 227.337L278.797 229.719ZM282.312 256.477L278.777 260.012L278.834 260.069L278.893 260.124L282.312 256.477ZM303.016 267.414L304.675 262.697L304.673 262.697L303.016 267.414ZM341.883 281.086L340.224 285.803L340.257 285.814L340.291 285.826L341.883 281.086ZM384.461 363.312L379.958 361.139L379.95 361.155L379.942 361.172L384.461 363.312ZM369.227 382.453L372.35 386.357L372.359 386.35L369.227 382.453ZM345.594 394.562L344.114 389.787L344.083 389.796L344.053 389.806L345.594 394.562ZM276.258 391.438L273.975 395.886L276.258 391.438ZM253.406 371.32L257.616 368.623L256.141 366.32H253.406V371.32ZM233.094 371.32H228.094V376.32H233.094V371.32ZM233.094 337.727V332.727H228.094V337.727H233.094ZM273.523 337.727H278.523V332.727H273.523V337.727ZM277.039 352.18L272.715 354.69L272.763 354.774L272.815 354.855L277.039 352.18ZM286.609 361.75L283.934 365.974L283.965 365.994L283.997 366.013L286.609 361.75ZM300.086 367.219L298.934 372.084L298.948 372.087L298.962 372.091L300.086 367.219ZM330.164 367.219L331.377 372.069L331.44 372.054L331.502 372.036L330.164 367.219ZM342.469 361.75L345.242 365.91L345.259 365.899L345.276 365.887L342.469 361.75ZM347.742 324.836L344.052 328.21L344.078 328.238L344.104 328.266L347.742 324.836ZM326.258 312.531L324.507 317.215L324.538 317.226L324.568 317.237L326.258 312.531ZM287.586 298.078L289.336 293.395L289.298 293.38L289.26 293.367L287.586 298.078ZM252.43 276.789L248.649 280.062L248.675 280.092L248.702 280.121L252.43 276.789ZM245.789 220.344L241.223 218.305L241.208 218.34L241.193 218.374L245.789 220.344ZM259.656 201.594L262.937 205.367L262.943 205.362L259.656 201.594ZM281.922 189.094L280.298 184.365L281.922 189.094ZM348.133 190.656L346.223 195.277L348.133 190.656ZM374.5 211.359L370.596 214.483L372.097 216.359H374.5V211.359ZM393.445 211.359H398.445V206.359H393.445V211.359ZM393.445 244.953V249.953H398.445V244.953H393.445ZM358.406 244.953C358.406 238.669 356.899 233.008 353.616 228.247L345.384 233.925C347.309 236.716 348.406 240.299 348.406 244.953H358.406ZM353.724 228.411C350.816 223.818 346.97 220.131 342.245 217.387L337.224 226.035C340.572 227.979 343.236 230.541 345.276 233.761L353.724 228.411ZM342.347 217.448C337.791 214.655 332.757 212.696 327.288 211.545L325.228 221.33C329.654 222.262 333.605 223.819 337.122 225.974L342.347 217.448ZM327.41 211.572C322.116 210.318 316.911 209.68 311.805 209.68V219.68C316.073 219.68 320.504 220.213 325.105 221.303L327.41 211.572ZM311.805 209.68C306.222 209.68 300.969 210.308 296.072 211.604L298.631 221.271C302.588 220.224 306.97 219.68 311.805 219.68V209.68ZM296.036 211.614C291.265 212.915 287.002 214.834 283.329 217.436L289.109 225.596C291.686 223.77 294.844 222.304 298.667 221.261L296.036 211.614ZM283.329 217.436C279.614 220.067 276.63 223.355 274.434 227.276L283.159 232.162C284.609 229.572 286.574 227.391 289.109 225.596L283.329 217.436ZM274.4 227.337C272.273 231.264 271.258 235.612 271.258 240.266H281.258C281.258 237.107 281.935 234.423 283.193 232.1L274.4 227.337ZM271.258 240.266C271.258 248.097 273.631 254.866 278.777 260.012L285.848 252.941C282.921 250.014 281.258 245.976 281.258 240.266H271.258ZM278.893 260.124C283.82 264.743 291.504 268.669 301.358 272.131L304.673 262.697C295.257 259.388 289.138 256.022 285.732 252.829L278.893 260.124ZM301.356 272.131L340.224 285.803L343.542 276.369L304.675 262.697L301.356 272.131ZM340.291 285.826C356.416 291.243 367.619 298.429 374.497 307.055L382.316 300.82C373.829 290.176 360.683 282.127 343.475 276.346L340.291 285.826ZM374.497 307.055C381.409 315.724 384.93 326.122 384.93 338.508H394.93C394.93 324.071 390.768 311.421 382.316 300.82L374.497 307.055ZM384.93 338.508C384.93 346.794 383.254 354.312 379.958 361.139L388.964 365.486C392.96 357.209 394.93 348.19 394.93 338.508H384.93ZM379.942 361.172C376.762 367.885 372.168 373.673 366.094 378.556L372.359 386.35C379.566 380.556 385.128 373.583 388.98 365.453L379.942 361.172ZM366.103 378.549C360.153 383.309 352.856 387.078 344.114 389.787L347.074 399.338C356.821 396.318 365.279 392.014 372.35 386.357L366.103 378.549ZM344.053 389.806C335.38 392.615 325.624 394.055 314.734 394.055V404.055C326.501 404.055 337.317 402.499 347.135 399.319L344.053 389.806ZM314.734 394.055C299.463 394.055 287.498 391.586 278.541 386.989L273.975 395.886C284.809 401.446 298.495 404.055 314.734 404.055V394.055ZM278.541 386.989C269.331 382.263 262.422 376.124 257.616 368.623L249.196 374.017C255.068 383.183 263.393 390.456 273.975 395.886L278.541 386.989ZM253.406 366.32H233.094V376.32H253.406V366.32ZM238.094 371.32V337.727H228.094V371.32H238.094ZM233.094 342.727H273.523V332.727H233.094V342.727ZM268.523 337.727C268.523 344.031 269.848 349.752 272.715 354.69L281.363 349.669C279.543 346.534 278.523 342.62 278.523 337.727H268.523ZM272.815 354.855C275.684 359.386 279.403 363.105 283.934 365.974L289.285 357.526C286.003 355.447 283.342 352.786 281.263 349.504L272.815 354.855ZM283.997 366.013C288.517 368.784 293.508 370.799 298.934 372.084L301.238 362.353C296.768 361.295 292.775 359.664 289.222 357.487L283.997 366.013ZM298.962 372.091C304.408 373.348 309.929 373.977 315.516 373.977V363.977C310.686 363.977 305.92 363.434 301.21 362.347L298.962 372.091ZM315.516 373.977C320.982 373.977 326.273 373.345 331.377 372.069L328.951 362.368C324.68 363.436 320.206 363.977 315.516 363.977V373.977ZM331.502 372.036C336.624 370.614 341.225 368.588 345.242 365.91L339.695 357.59C336.681 359.599 333.079 361.22 328.826 362.401L331.502 372.036ZM345.276 365.887C349.444 363.059 352.828 359.632 355.321 355.581L346.804 350.34C345.13 353.061 342.785 355.493 339.661 357.613L345.276 365.887ZM355.321 355.581C357.928 351.344 359.188 346.582 359.188 341.438H349.188C349.188 344.887 348.363 347.807 346.804 350.34L355.321 355.581ZM359.188 341.438C359.188 333.707 356.589 326.931 351.38 321.406L344.104 328.266C347.489 331.856 349.188 336.147 349.188 341.438H359.188ZM351.432 321.462C346.448 316.01 338.375 311.569 327.947 307.825L324.568 317.237C334.453 320.785 340.703 324.547 344.052 328.21L351.432 321.462ZM328.008 307.848L289.336 293.395L285.836 302.762L324.507 317.215L328.008 307.848ZM289.26 293.367C273.962 287.93 263.086 281.208 256.157 273.457L248.702 280.121C257.138 289.558 269.699 297.028 285.912 302.789L289.26 293.367ZM256.21 273.517C249.546 265.819 246.102 256.156 246.102 244.172H236.102C236.102 258.23 240.209 270.312 248.649 280.062L256.21 273.517ZM246.102 244.172C246.102 236.198 247.548 228.932 250.385 222.313L241.193 218.374C237.78 226.339 236.102 234.958 236.102 244.172H246.102ZM250.355 222.382C253.315 215.751 257.5 210.094 262.937 205.367L256.375 197.821C249.833 203.51 244.774 210.353 241.223 218.305L250.355 222.382ZM262.943 205.362C268.514 200.502 275.35 196.636 283.545 193.823L280.298 184.365C271.046 187.541 263.038 192.009 256.369 197.826L262.943 205.362ZM283.545 193.823C291.649 191.041 301.045 189.602 311.805 189.602V179.602C300.169 179.602 289.643 181.157 280.298 184.365L283.545 193.823ZM311.805 189.602C325.828 189.602 337.241 191.565 346.223 195.277L350.043 186.035C339.493 181.675 326.687 179.602 311.805 179.602V189.602ZM346.223 195.277C355.076 198.936 363.214 205.256 370.596 214.483L378.404 208.236C370.161 197.932 360.721 190.449 350.043 186.035L346.223 195.277ZM374.5 216.359H393.445V206.359H374.5V216.359ZM388.445 211.359V244.953H398.445V211.359H388.445ZM393.445 239.953H353.406V249.953H393.445V239.953Z" fill="white"/>
</g>
<defs>
<clipPath id="clip0_162_14">
<rect width="500" height="500" rx="40" fill="white"/>
</clipPath>
</defs>
</svg>
