<svg width="1738" height="500" viewBox="0 0 1738 500" fill="none" xmlns="http://www.w3.org/2000/svg">
<g clip-path="url(#clip0_244_10)">
<rect width="500" height="500" rx="250" fill="#D4F357"/>
<path d="M574.418 -77C565.82 -24.979 474.882 472.684 -252.093 498.982C132.849 505.192 584 745 584 745L574.418 -77Z" fill="#47CB74"/>
<path d="M-14.4179 530C-5.81958 477.979 85.1183 -19.6844 812.093 -45.9824C427.151 -52.1921 -24 -292 -24 -292L-14.4179 530Z" fill="#47CB74"/>
</g>
<path d="M104.969 89.0938H170.594V359.406H201.062V393H104.969V359.406H134.266V122.688H104.969V89.0938ZM353.406 244.953C353.406 239.484 352.104 234.862 349.5 231.086C347.026 227.18 343.771 224.055 339.734 221.711C335.698 219.237 331.206 217.479 326.258 216.438C321.31 215.266 316.492 214.68 311.805 214.68C306.596 214.68 301.779 215.266 297.352 216.438C293.055 217.609 289.344 219.302 286.219 221.516C283.094 223.729 280.62 226.464 278.797 229.719C277.104 232.844 276.258 236.359 276.258 240.266C276.258 247.036 278.276 252.44 282.312 256.477C286.479 260.383 293.38 264.029 303.016 267.414L341.883 281.086C358.549 286.685 370.724 294.302 378.406 303.938C386.089 313.573 389.93 325.096 389.93 338.508C389.93 347.492 388.107 355.76 384.461 363.312C380.945 370.734 375.867 377.115 369.227 382.453C362.716 387.661 354.839 391.698 345.594 394.562C336.349 397.557 326.062 399.055 314.734 399.055C298.979 399.055 286.154 396.516 276.258 391.438C266.362 386.359 258.745 379.654 253.406 371.32H233.094V337.727H273.523C273.523 343.326 274.695 348.143 277.039 352.18C279.513 356.086 282.703 359.276 286.609 361.75C290.646 364.224 295.138 366.047 300.086 367.219C305.164 368.391 310.307 368.977 315.516 368.977C320.594 368.977 325.477 368.391 330.164 367.219C334.852 365.917 338.953 364.094 342.469 361.75C346.115 359.276 348.979 356.346 351.062 352.961C353.146 349.576 354.188 345.734 354.188 341.438C354.188 334.927 352.039 329.393 347.742 324.836C343.576 320.279 336.414 316.177 326.258 312.531L287.586 298.078C271.831 292.479 260.112 285.383 252.43 276.789C244.878 268.065 241.102 257.193 241.102 244.172C241.102 235.578 242.664 227.635 245.789 220.344C249.044 213.052 253.667 206.802 259.656 201.594C265.776 196.255 273.198 192.089 281.922 189.094C290.646 186.099 300.607 184.602 311.805 184.602C326.258 184.602 338.367 186.62 348.133 190.656C357.898 194.693 366.688 201.594 374.5 211.359H393.445V244.953H353.406ZM614.344 359.406H638.953L615.516 292.219H501.648L478.797 359.406H509.266V393H413.172V359.406H438.953L531.141 96.9062H588.758L680.75 359.406H710.438V393H614.344V359.406ZM512.781 259.797H604.188L558.094 127.375L512.781 259.797ZM865.125 359.406H893.641V267.023C893.641 251.529 889.669 239.81 881.727 231.867C873.914 223.794 862.651 219.758 847.938 219.758C839.474 219.758 830.945 221.776 822.352 225.812C813.758 229.849 805.62 234.862 797.938 240.852V359.406H826.453V393H731.922V359.406H760.047V224.25H731.922V190.656H796.375V214.484H796.766C801.062 210.708 805.62 207.128 810.438 203.742C815.385 200.357 820.529 197.427 825.867 194.953C831.206 192.479 836.74 190.526 842.469 189.094C848.328 187.661 854.448 186.945 860.828 186.945C871.635 186.945 881.401 188.443 890.125 191.438C898.849 194.432 906.271 198.99 912.391 205.109C918.51 211.229 923.198 219.107 926.453 228.742C929.839 238.247 931.531 249.51 931.531 262.531V359.406H959.656V393H865.125V359.406ZM997.156 190.656H1063.17V359.406H1093.64V393H997.547V359.406H1026.45V224.25H997.156V190.656ZM1019.62 118.977C1019.62 115.591 1020.27 112.401 1021.57 109.406C1023 106.281 1024.83 103.612 1027.04 101.398C1029.38 99.0547 1032.12 97.2318 1035.24 95.9297C1038.37 94.4974 1041.69 93.7812 1045.2 93.7812C1048.59 93.7812 1051.78 94.4974 1054.77 95.9297C1057.9 97.2318 1060.57 99.0547 1062.78 101.398C1065.12 103.612 1066.95 106.281 1068.25 109.406C1069.68 112.401 1070.4 115.591 1070.4 118.977C1070.4 122.492 1069.68 125.812 1068.25 128.938C1066.95 132.062 1065.12 134.862 1062.78 137.336C1060.57 139.68 1057.9 141.568 1054.77 143C1051.78 144.302 1048.59 144.953 1045.2 144.953C1041.69 144.953 1038.37 144.302 1035.24 143C1032.12 141.568 1029.38 139.68 1027.04 137.336C1024.83 134.862 1023 132.062 1021.57 128.938C1020.27 125.812 1019.62 122.492 1019.62 118.977ZM1127.23 190.656H1191.69V214.289H1192.08C1196.51 210.513 1201.13 206.997 1205.95 203.742C1210.89 200.357 1216.04 197.427 1221.38 194.953C1226.71 192.479 1232.25 190.526 1237.98 189.094C1243.84 187.661 1249.89 186.945 1256.14 186.945C1270.72 186.945 1283.29 189.68 1293.84 195.148C1304.38 200.487 1312.52 208.885 1318.25 220.344C1323.2 215.917 1328.41 211.685 1333.88 207.648C1339.34 203.482 1345.01 199.901 1350.87 196.906C1356.86 193.911 1363.11 191.503 1369.62 189.68C1376.13 187.857 1382.9 186.945 1389.93 186.945C1400.87 186.945 1410.7 188.443 1419.42 191.438C1428.15 194.432 1435.57 198.99 1441.69 205.109C1447.81 211.229 1452.43 219.107 1455.55 228.742C1458.81 238.247 1460.44 249.51 1460.44 262.531V359.406H1488.56V393H1394.03V359.406H1422.55V267.023C1422.55 251.529 1418.64 239.81 1410.83 231.867C1403.02 223.794 1391.75 219.758 1377.04 219.758C1368.32 219.758 1359.4 221.841 1350.28 226.008C1341.17 230.174 1333.35 235.448 1326.84 241.828V359.406H1354.77V393H1260.44V359.406H1288.95V267.023C1288.95 251.529 1284.98 239.81 1277.04 231.867C1269.23 223.794 1257.96 219.758 1243.25 219.758C1234.79 219.758 1226.26 221.776 1217.66 225.812C1209.07 229.849 1200.93 234.862 1193.25 240.852V359.406H1221.77V393H1127.23V359.406H1155.36V224.25H1127.23V190.656ZM1562 296.516C1562 302.245 1562.39 307.518 1563.17 312.336C1564.08 317.023 1565.32 321.516 1566.88 325.812C1571.7 338.833 1579.38 348.664 1589.93 355.305C1600.61 361.815 1612.65 365.07 1626.06 365.07C1636.61 365.07 1646.83 363.638 1656.73 360.773C1666.75 357.779 1677.23 353.156 1688.17 346.906L1702.82 371.711C1689.54 380.826 1676.19 387.596 1662.78 392.023C1649.37 396.451 1635.44 398.664 1620.98 398.664C1607.31 398.664 1594.62 396.385 1582.9 391.828C1571.31 387.271 1561.28 380.5 1552.82 371.516C1544.49 362.531 1537.91 351.333 1533.09 337.922C1528.41 324.51 1526.06 308.885 1526.06 291.047C1526.06 276.594 1528.08 262.987 1532.12 250.227C1536.15 237.336 1542.14 226.138 1550.09 216.633C1558.16 206.997 1568.12 199.38 1579.97 193.781C1591.82 188.182 1605.62 185.383 1621.38 185.383C1636.61 185.383 1649.3 187.727 1659.46 192.414C1669.75 196.971 1678.08 203.091 1684.46 210.773C1690.97 218.326 1695.85 226.984 1699.11 236.75C1702.49 246.516 1704.84 256.477 1706.14 266.633C1706.79 271.581 1707.18 276.594 1707.31 281.672C1707.57 286.75 1707.7 291.698 1707.7 296.516H1562ZM1618.84 215.852C1610.37 215.852 1602.95 217.089 1596.57 219.562C1590.32 221.906 1584.98 225.357 1580.55 229.914C1576.13 234.341 1572.55 239.81 1569.81 246.32C1567.21 252.831 1565.26 260.122 1563.95 268.195H1668.84C1668.32 260.643 1667.08 253.677 1665.12 247.297C1663.3 240.917 1660.44 235.383 1656.53 230.695C1652.62 226.008 1647.61 222.362 1641.49 219.758C1635.37 217.154 1627.82 215.852 1618.84 215.852Z" fill="#79118A"/>
<path d="M104.969 89.0938V84.0938H99.9688V89.0938H104.969ZM170.594 89.0938H175.594V84.0938H170.594V89.0938ZM170.594 359.406H165.594V364.406H170.594V359.406ZM201.062 359.406H206.062V354.406H201.062V359.406ZM201.062 393V398H206.062V393H201.062ZM104.969 393H99.9688V398H104.969V393ZM104.969 359.406V354.406H99.9688V359.406H104.969ZM134.266 359.406V364.406H139.266V359.406H134.266ZM134.266 122.688H139.266V117.688H134.266V122.688ZM104.969 122.688H99.9688V127.688H104.969V122.688ZM104.969 94.0938H170.594V84.0938H104.969V94.0938ZM165.594 89.0938V359.406H175.594V89.0938H165.594ZM170.594 364.406H201.062V354.406H170.594V364.406ZM196.062 359.406V393H206.062V359.406H196.062ZM201.062 388H104.969V398H201.062V388ZM109.969 393V359.406H99.9688V393H109.969ZM104.969 364.406H134.266V354.406H104.969V364.406ZM139.266 359.406V122.688H129.266V359.406H139.266ZM134.266 117.688H104.969V127.688H134.266V117.688ZM109.969 122.688V89.0938H99.9688V122.688H109.969ZM353.406 244.953H348.406V249.953H353.406V244.953ZM349.5 231.086L345.276 233.761L345.328 233.844L345.384 233.925L349.5 231.086ZM339.734 221.711L337.122 225.974L337.172 226.005L337.224 226.035L339.734 221.711ZM326.258 216.438L325.105 221.303L325.166 221.317L325.228 221.33L326.258 216.438ZM297.352 216.438L296.072 211.604L296.054 211.609L296.036 211.614L297.352 216.438ZM278.797 229.719L274.434 227.276L274.417 227.306L274.4 227.337L278.797 229.719ZM282.312 256.477L278.777 260.012L278.834 260.069L278.893 260.124L282.312 256.477ZM303.016 267.414L304.675 262.697L304.673 262.697L303.016 267.414ZM341.883 281.086L340.224 285.803L340.257 285.814L340.291 285.826L341.883 281.086ZM384.461 363.312L379.958 361.139L379.95 361.155L379.942 361.172L384.461 363.312ZM369.227 382.453L372.35 386.357L372.359 386.35L369.227 382.453ZM345.594 394.562L344.114 389.787L344.083 389.796L344.053 389.806L345.594 394.562ZM276.258 391.438L273.975 395.886L276.258 391.438ZM253.406 371.32L257.616 368.623L256.141 366.32H253.406V371.32ZM233.094 371.32H228.094V376.32H233.094V371.32ZM233.094 337.727V332.727H228.094V337.727H233.094ZM273.523 337.727H278.523V332.727H273.523V337.727ZM277.039 352.18L272.715 354.69L272.763 354.774L272.815 354.855L277.039 352.18ZM286.609 361.75L283.934 365.974L283.965 365.994L283.997 366.013L286.609 361.75ZM300.086 367.219L298.934 372.084L298.948 372.087L298.962 372.091L300.086 367.219ZM330.164 367.219L331.377 372.069L331.44 372.054L331.502 372.036L330.164 367.219ZM342.469 361.75L345.242 365.91L345.259 365.899L345.276 365.887L342.469 361.75ZM347.742 324.836L344.052 328.21L344.078 328.238L344.104 328.266L347.742 324.836ZM326.258 312.531L324.507 317.215L324.538 317.226L324.568 317.237L326.258 312.531ZM287.586 298.078L289.336 293.395L289.298 293.38L289.26 293.367L287.586 298.078ZM252.43 276.789L248.649 280.062L248.675 280.092L248.702 280.121L252.43 276.789ZM245.789 220.344L241.223 218.305L241.208 218.34L241.193 218.374L245.789 220.344ZM259.656 201.594L262.937 205.367L262.943 205.362L259.656 201.594ZM281.922 189.094L280.298 184.365L281.922 189.094ZM348.133 190.656L346.223 195.277L348.133 190.656ZM374.5 211.359L370.596 214.483L372.097 216.359H374.5V211.359ZM393.445 211.359H398.445V206.359H393.445V211.359ZM393.445 244.953V249.953H398.445V244.953H393.445ZM358.406 244.953C358.406 238.669 356.899 233.008 353.616 228.247L345.384 233.925C347.309 236.716 348.406 240.299 348.406 244.953H358.406ZM353.724 228.411C350.816 223.818 346.97 220.131 342.245 217.387L337.224 226.035C340.572 227.979 343.236 230.541 345.276 233.761L353.724 228.411ZM342.347 217.448C337.791 214.655 332.757 212.696 327.288 211.545L325.228 221.33C329.654 222.262 333.605 223.819 337.122 225.974L342.347 217.448ZM327.41 211.572C322.116 210.318 316.911 209.68 311.805 209.68V219.68C316.073 219.68 320.504 220.213 325.105 221.303L327.41 211.572ZM311.805 209.68C306.222 209.68 300.969 210.308 296.072 211.604L298.631 221.271C302.588 220.224 306.97 219.68 311.805 219.68V209.68ZM296.036 211.614C291.265 212.915 287.002 214.834 283.329 217.436L289.109 225.596C291.686 223.77 294.844 222.304 298.667 221.261L296.036 211.614ZM283.329 217.436C279.614 220.067 276.63 223.355 274.434 227.276L283.159 232.162C284.609 229.572 286.574 227.391 289.109 225.596L283.329 217.436ZM274.4 227.337C272.273 231.264 271.258 235.612 271.258 240.266H281.258C281.258 237.107 281.935 234.423 283.193 232.1L274.4 227.337ZM271.258 240.266C271.258 248.097 273.631 254.866 278.777 260.012L285.848 252.941C282.921 250.014 281.258 245.976 281.258 240.266H271.258ZM278.893 260.124C283.82 264.743 291.504 268.669 301.358 272.131L304.673 262.697C295.257 259.388 289.138 256.022 285.732 252.829L278.893 260.124ZM301.356 272.131L340.224 285.803L343.542 276.369L304.675 262.697L301.356 272.131ZM340.291 285.826C356.416 291.243 367.619 298.429 374.497 307.055L382.316 300.82C373.829 290.176 360.683 282.127 343.475 276.346L340.291 285.826ZM374.497 307.055C381.409 315.724 384.93 326.122 384.93 338.508H394.93C394.93 324.071 390.768 311.421 382.316 300.82L374.497 307.055ZM384.93 338.508C384.93 346.794 383.254 354.312 379.958 361.139L388.964 365.486C392.96 357.209 394.93 348.19 394.93 338.508H384.93ZM379.942 361.172C376.762 367.885 372.168 373.673 366.094 378.556L372.359 386.35C379.566 380.556 385.128 373.583 388.98 365.453L379.942 361.172ZM366.103 378.549C360.153 383.309 352.856 387.078 344.114 389.787L347.074 399.338C356.821 396.318 365.279 392.014 372.35 386.357L366.103 378.549ZM344.053 389.806C335.38 392.615 325.624 394.055 314.734 394.055V404.055C326.501 404.055 337.317 402.499 347.135 399.319L344.053 389.806ZM314.734 394.055C299.463 394.055 287.498 391.586 278.541 386.989L273.975 395.886C284.809 401.446 298.495 404.055 314.734 404.055V394.055ZM278.541 386.989C269.331 382.263 262.422 376.124 257.616 368.623L249.196 374.017C255.068 383.183 263.393 390.456 273.975 395.886L278.541 386.989ZM253.406 366.32H233.094V376.32H253.406V366.32ZM238.094 371.32V337.727H228.094V371.32H238.094ZM233.094 342.727H273.523V332.727H233.094V342.727ZM268.523 337.727C268.523 344.031 269.848 349.752 272.715 354.69L281.363 349.669C279.543 346.534 278.523 342.62 278.523 337.727H268.523ZM272.815 354.855C275.684 359.386 279.403 363.105 283.934 365.974L289.285 357.526C286.003 355.447 283.342 352.786 281.263 349.504L272.815 354.855ZM283.997 366.013C288.517 368.784 293.508 370.799 298.934 372.084L301.238 362.353C296.768 361.295 292.775 359.664 289.222 357.487L283.997 366.013ZM298.962 372.091C304.408 373.348 309.929 373.977 315.516 373.977V363.977C310.686 363.977 305.92 363.434 301.21 362.347L298.962 372.091ZM315.516 373.977C320.982 373.977 326.273 373.345 331.377 372.069L328.951 362.368C324.68 363.436 320.206 363.977 315.516 363.977V373.977ZM331.502 372.036C336.624 370.614 341.225 368.588 345.242 365.91L339.695 357.59C336.681 359.599 333.079 361.22 328.826 362.401L331.502 372.036ZM345.276 365.887C349.444 363.059 352.828 359.632 355.321 355.581L346.804 350.34C345.13 353.061 342.785 355.493 339.661 357.613L345.276 365.887ZM355.321 355.581C357.928 351.344 359.188 346.582 359.188 341.438H349.188C349.188 344.887 348.363 347.807 346.804 350.34L355.321 355.581ZM359.188 341.438C359.188 333.707 356.589 326.931 351.38 321.406L344.104 328.266C347.489 331.856 349.188 336.147 349.188 341.438H359.188ZM351.432 321.462C346.448 316.01 338.375 311.569 327.947 307.825L324.568 317.237C334.453 320.785 340.703 324.547 344.052 328.21L351.432 321.462ZM328.008 307.848L289.336 293.395L285.836 302.762L324.507 317.215L328.008 307.848ZM289.26 293.367C273.962 287.93 263.086 281.208 256.157 273.457L248.702 280.121C257.138 289.558 269.699 297.028 285.912 302.789L289.26 293.367ZM256.21 273.517C249.546 265.819 246.102 256.156 246.102 244.172H236.102C236.102 258.23 240.209 270.312 248.649 280.062L256.21 273.517ZM246.102 244.172C246.102 236.198 247.548 228.932 250.385 222.313L241.193 218.374C237.78 226.339 236.102 234.958 236.102 244.172H246.102ZM250.355 222.382C253.315 215.751 257.5 210.094 262.937 205.367L256.375 197.821C249.833 203.51 244.774 210.353 241.223 218.305L250.355 222.382ZM262.943 205.362C268.514 200.502 275.35 196.636 283.545 193.823L280.298 184.365C271.046 187.541 263.038 192.009 256.369 197.826L262.943 205.362ZM283.545 193.823C291.649 191.041 301.045 189.602 311.805 189.602V179.602C300.169 179.602 289.643 181.157 280.298 184.365L283.545 193.823ZM311.805 189.602C325.828 189.602 337.241 191.565 346.223 195.277L350.043 186.035C339.493 181.675 326.687 179.602 311.805 179.602V189.602ZM346.223 195.277C355.076 198.936 363.214 205.256 370.596 214.483L378.404 208.236C370.161 197.932 360.721 190.449 350.043 186.035L346.223 195.277ZM374.5 216.359H393.445V206.359H374.5V216.359ZM388.445 211.359V244.953H398.445V211.359H388.445ZM393.445 239.953H353.406V249.953H393.445V239.953ZM614.344 359.406V354.406H609.344V359.406H614.344ZM638.953 359.406V364.406H645.993L643.674 357.759L638.953 359.406ZM615.516 292.219L620.237 290.572L619.067 287.219H615.516V292.219ZM501.648 292.219V287.219H498.068L496.915 290.609L501.648 292.219ZM478.797 359.406L474.063 357.796L471.815 364.406H478.797V359.406ZM509.266 359.406H514.266V354.406H509.266V359.406ZM509.266 393V398H514.266V393H509.266ZM413.172 393H408.172V398H413.172V393ZM413.172 359.406V354.406H408.172V359.406H413.172ZM438.953 359.406V364.406H442.497L443.671 361.063L438.953 359.406ZM531.141 96.9062V91.9062H527.597L526.423 95.2495L531.141 96.9062ZM588.758 96.9062L593.476 95.2526L592.304 91.9062H588.758V96.9062ZM680.75 359.406L676.031 361.06L677.204 364.406H680.75V359.406ZM710.438 359.406H715.438V354.406H710.438V359.406ZM710.438 393V398H715.438V393H710.438ZM614.344 393H609.344V398H614.344V393ZM512.781 259.797L508.051 258.178L505.786 264.797H512.781V259.797ZM604.188 259.797V264.797H611.222L608.91 258.153L604.188 259.797ZM558.094 127.375L562.816 125.731L558.053 112.049L553.363 125.756L558.094 127.375ZM614.344 364.406H638.953V354.406H614.344V364.406ZM643.674 357.759L620.237 290.572L610.795 293.866L634.232 361.053L643.674 357.759ZM615.516 287.219H501.648V297.219H615.516V287.219ZM496.915 290.609L474.063 357.796L483.531 361.016L506.382 293.829L496.915 290.609ZM478.797 364.406H509.266V354.406H478.797V364.406ZM504.266 359.406V393H514.266V359.406H504.266ZM509.266 388H413.172V398H509.266V388ZM418.172 393V359.406H408.172V393H418.172ZM413.172 364.406H438.953V354.406H413.172V364.406ZM443.671 361.063L535.858 98.563L526.423 95.2495L434.236 357.749L443.671 361.063ZM531.141 101.906H588.758V91.9062H531.141V101.906ZM584.039 98.5599L676.031 361.06L685.469 357.753L593.476 95.2526L584.039 98.5599ZM680.75 364.406H710.438V354.406H680.75V364.406ZM705.438 359.406V393H715.438V359.406H705.438ZM710.438 388H614.344V398H710.438V388ZM619.344 393V359.406H609.344V393H619.344ZM512.781 264.797H604.188V254.797H512.781V264.797ZM608.91 258.153L562.816 125.731L553.372 129.019L599.465 261.441L608.91 258.153ZM553.363 125.756L508.051 258.178L517.512 261.416L562.824 128.994L553.363 125.756ZM865.125 359.406V354.406H860.125V359.406H865.125ZM893.641 359.406V364.406H898.641V359.406H893.641ZM881.727 231.867L878.134 235.344L878.162 235.374L878.191 235.403L881.727 231.867ZM797.938 240.852L794.863 236.908L792.938 238.41V240.852H797.938ZM797.938 359.406H792.938V364.406H797.938V359.406ZM826.453 359.406H831.453V354.406H826.453V359.406ZM826.453 393V398H831.453V393H826.453ZM731.922 393H726.922V398H731.922V393ZM731.922 359.406V354.406H726.922V359.406H731.922ZM760.047 359.406V364.406H765.047V359.406H760.047ZM760.047 224.25H765.047V219.25H760.047V224.25ZM731.922 224.25H726.922V229.25H731.922V224.25ZM731.922 190.656V185.656H726.922V190.656H731.922ZM796.375 190.656H801.375V185.656H796.375V190.656ZM796.375 214.484H791.375V219.484H796.375V214.484ZM796.766 214.484V219.484H798.65L800.066 218.24L796.766 214.484ZM810.438 203.742L807.614 199.616L807.588 199.633L807.563 199.651L810.438 203.742ZM825.867 194.953L827.969 199.49L825.867 194.953ZM842.469 189.094L841.281 184.237L841.269 184.24L841.256 184.243L842.469 189.094ZM890.125 191.438L891.748 186.708L890.125 191.438ZM912.391 205.109L915.926 201.574L912.391 205.109ZM926.453 228.742L921.716 230.343L921.729 230.381L921.743 230.42L926.453 228.742ZM931.531 359.406H926.531V364.406H931.531V359.406ZM959.656 359.406H964.656V354.406H959.656V359.406ZM959.656 393V398H964.656V393H959.656ZM865.125 393H860.125V398H865.125V393ZM865.125 364.406H893.641V354.406H865.125V364.406ZM898.641 359.406V267.023H888.641V359.406H898.641ZM898.641 267.023C898.641 250.716 894.452 237.522 885.262 228.332L878.191 235.403C884.887 242.098 888.641 252.341 888.641 267.023H898.641ZM885.32 228.39C876.299 219.068 863.567 214.758 847.938 214.758V224.758C861.735 224.758 871.53 228.52 878.134 235.344L885.32 228.39ZM847.938 214.758C838.654 214.758 829.403 216.976 820.226 221.287L824.477 230.338C832.487 226.576 840.294 224.758 847.938 224.758V214.758ZM820.226 221.287C811.287 225.486 802.831 230.696 794.863 236.908L801.012 244.795C808.408 239.028 816.229 234.212 824.477 230.338L820.226 221.287ZM792.938 240.852V359.406H802.938V240.852H792.938ZM797.938 364.406H826.453V354.406H797.938V364.406ZM821.453 359.406V393H831.453V359.406H821.453ZM826.453 388H731.922V398H826.453V388ZM736.922 393V359.406H726.922V393H736.922ZM731.922 364.406H760.047V354.406H731.922V364.406ZM765.047 359.406V224.25H755.047V359.406H765.047ZM760.047 219.25H731.922V229.25H760.047V219.25ZM736.922 224.25V190.656H726.922V224.25H736.922ZM731.922 195.656H796.375V185.656H731.922V195.656ZM791.375 190.656V214.484H801.375V190.656H791.375ZM796.375 219.484H796.766V209.484H796.375V219.484ZM800.066 218.24C804.223 214.587 808.638 211.118 813.312 207.833L807.563 199.651C802.601 203.138 797.902 206.83 793.465 210.729L800.066 218.24ZM813.261 207.869C817.985 204.637 822.887 201.845 827.969 199.49L823.765 190.417C818.17 193.009 812.786 196.077 807.614 199.616L813.261 207.869ZM827.969 199.49C833.021 197.149 838.257 195.301 843.681 193.944L841.256 184.243C835.222 185.751 829.39 187.81 823.765 190.417L827.969 199.49ZM843.656 193.951C849.105 192.619 854.825 191.945 860.828 191.945V181.945C854.071 181.945 847.551 182.704 841.281 184.237L843.656 193.951ZM860.828 191.945C871.176 191.945 880.381 193.379 888.502 196.167L891.748 186.708C882.421 183.506 872.095 181.945 860.828 181.945V191.945ZM888.502 196.167C896.554 198.931 903.309 203.098 908.855 208.645L915.926 201.574C909.233 194.881 901.144 189.934 891.748 186.708L888.502 196.167ZM908.855 208.645C914.343 214.133 918.664 221.309 921.716 230.343L931.19 227.142C927.732 216.905 922.677 208.325 915.926 201.574L908.855 208.645ZM921.743 230.42C924.89 239.256 926.531 249.924 926.531 262.531H936.531C936.531 249.096 934.787 237.239 931.163 227.065L921.743 230.42ZM926.531 262.531V359.406H936.531V262.531H926.531ZM931.531 364.406H959.656V354.406H931.531V364.406ZM954.656 359.406V393H964.656V359.406H954.656ZM959.656 388H865.125V398H959.656V388ZM870.125 393V359.406H860.125V393H870.125ZM997.156 190.656V185.656H992.156V190.656H997.156ZM1063.17 190.656H1068.17V185.656H1063.17V190.656ZM1063.17 359.406H1058.17V364.406H1063.17V359.406ZM1093.64 359.406H1098.64V354.406H1093.64V359.406ZM1093.64 393V398H1098.64V393H1093.64ZM997.547 393H992.547V398H997.547V393ZM997.547 359.406V354.406H992.547V359.406H997.547ZM1026.45 359.406V364.406H1031.45V359.406H1026.45ZM1026.45 224.25H1031.45V219.25H1026.45V224.25ZM997.156 224.25H992.156V229.25H997.156V224.25ZM1021.57 109.406L1017.02 107.323L1017 107.368L1016.98 107.413L1021.57 109.406ZM1027.04 101.398L1030.57 104.934L1027.04 101.398ZM1035.24 95.9297L1037.17 100.545L1037.25 100.511L1037.33 100.475L1035.24 95.9297ZM1054.77 95.9297L1052.62 100.44L1052.73 100.496L1052.85 100.545L1054.77 95.9297ZM1062.78 101.398L1059.15 104.832L1059.24 104.935L1059.35 105.034L1062.78 101.398ZM1068.25 109.406L1063.63 111.329L1063.68 111.448L1063.74 111.564L1068.25 109.406ZM1068.25 128.938L1063.7 126.854L1063.67 126.934L1063.63 127.014L1068.25 128.938ZM1062.78 137.336L1059.15 133.897L1059.15 133.903L1062.78 137.336ZM1054.77 143L1056.77 147.585L1056.81 147.566L1056.86 147.545L1054.77 143ZM1035.24 143L1033.16 147.545L1033.24 147.582L1033.32 147.615L1035.24 143ZM1027.04 137.336L1023.31 140.67L1023.41 140.773L1023.5 140.871L1027.04 137.336ZM1021.57 128.938L1016.95 130.861L1016.99 130.941L1017.02 131.021L1021.57 128.938ZM997.156 195.656H1063.17V185.656H997.156V195.656ZM1058.17 190.656V359.406H1068.17V190.656H1058.17ZM1063.17 364.406H1093.64V354.406H1063.17V364.406ZM1088.64 359.406V393H1098.64V359.406H1088.64ZM1093.64 388H997.547V398H1093.64V388ZM1002.55 393V359.406H992.547V393H1002.55ZM997.547 364.406H1026.45V354.406H997.547V364.406ZM1031.45 359.406V224.25H1021.45V359.406H1031.45ZM1026.45 219.25H997.156V229.25H1026.45V219.25ZM1002.16 224.25V190.656H992.156V224.25H1002.16ZM1024.62 118.977C1024.62 116.251 1025.14 113.742 1026.16 111.4L1016.98 107.413C1015.4 111.06 1014.62 114.931 1014.62 118.977H1024.62ZM1026.12 111.49C1027.32 108.852 1028.82 106.688 1030.57 104.934L1023.5 97.8629C1020.83 100.536 1018.68 103.711 1017.02 107.323L1026.12 111.49ZM1030.57 104.934C1032.45 103.062 1034.63 101.601 1037.17 100.545L1033.32 91.3143C1029.6 92.8621 1026.32 95.0474 1023.5 97.8629L1030.57 104.934ZM1037.33 100.475C1039.78 99.3492 1042.39 98.7812 1045.2 98.7812V88.7812C1040.99 88.7812 1036.95 89.6456 1033.16 91.3844L1037.33 100.475ZM1045.2 98.7812C1047.86 98.7812 1050.31 99.3367 1052.62 100.44L1056.93 91.419C1053.25 89.6581 1049.32 88.7812 1045.2 88.7812V98.7812ZM1052.85 100.545C1055.36 101.591 1057.44 103.023 1059.15 104.832L1066.42 97.9653C1063.7 95.0863 1060.44 92.8723 1056.7 91.3143L1052.85 100.545ZM1059.35 105.034C1061.16 106.742 1062.59 108.818 1063.63 111.329L1072.87 107.483C1071.31 103.744 1069.09 100.482 1066.21 97.7634L1059.35 105.034ZM1063.74 111.564C1064.84 113.871 1065.4 116.322 1065.4 118.977H1075.4C1075.4 114.86 1074.52 110.931 1072.76 107.249L1063.74 111.564ZM1065.4 118.977C1065.4 121.79 1064.83 124.398 1063.7 126.854L1072.8 131.021C1074.53 127.227 1075.4 123.194 1075.4 118.977H1065.4ZM1063.63 127.014C1062.57 129.575 1061.08 131.861 1059.15 133.897L1066.41 140.775C1069.17 137.863 1071.33 134.55 1072.87 130.861L1063.63 127.014ZM1059.15 133.903C1057.4 135.749 1055.27 137.272 1052.69 138.455L1056.86 147.545C1060.53 145.863 1063.73 143.61 1066.42 140.769L1059.15 133.903ZM1052.78 138.415C1050.44 139.433 1047.93 139.953 1045.2 139.953V149.953C1049.25 149.953 1053.12 149.171 1056.77 147.585L1052.78 138.415ZM1045.2 139.953C1042.32 139.953 1039.66 139.423 1037.17 138.385L1033.32 147.615C1037.08 149.181 1041.05 149.953 1045.2 149.953V139.953ZM1037.33 138.455C1034.72 137.261 1032.48 135.708 1030.57 133.8L1023.5 140.871C1026.28 143.651 1029.51 145.875 1033.16 147.545L1037.33 138.455ZM1030.77 134.002C1028.9 131.915 1027.35 129.54 1026.12 126.854L1017.02 131.021C1018.66 134.585 1020.75 137.809 1023.31 140.67L1030.77 134.002ZM1026.19 127.014C1025.15 124.522 1024.62 121.858 1024.62 118.977H1014.62C1014.62 123.126 1015.39 127.103 1016.95 130.861L1026.19 127.014ZM1127.23 190.656V185.656H1122.23V190.656H1127.23ZM1191.69 190.656H1196.69V185.656H1191.69V190.656ZM1191.69 214.289H1186.69V219.289H1191.69V214.289ZM1192.08 214.289V219.289H1193.92L1195.32 218.093L1192.08 214.289ZM1205.95 203.742L1208.74 207.885L1208.76 207.877L1208.77 207.869L1205.95 203.742ZM1221.38 194.953L1223.48 199.49L1221.38 194.953ZM1237.98 189.094L1236.79 184.237L1236.78 184.24L1236.76 184.243L1237.98 189.094ZM1293.84 195.148L1291.53 199.587L1291.56 199.598L1291.58 199.61L1293.84 195.148ZM1318.25 220.344L1313.78 222.58L1316.71 228.435L1321.58 224.07L1318.25 220.344ZM1333.88 207.648L1336.84 211.671L1336.87 211.649L1336.91 211.626L1333.88 207.648ZM1350.87 196.906L1348.63 192.434L1348.61 192.444L1348.59 192.454L1350.87 196.906ZM1369.62 189.68L1370.97 194.495L1370.97 194.495L1369.62 189.68ZM1419.42 191.438L1421.05 186.708L1419.42 191.438ZM1455.55 228.742L1450.8 230.285L1450.81 230.324L1450.82 230.362L1455.55 228.742ZM1460.44 359.406H1455.44V364.406H1460.44V359.406ZM1488.56 359.406H1493.56V354.406H1488.56V359.406ZM1488.56 393V398H1493.56V393H1488.56ZM1394.03 393H1389.03V398H1394.03V393ZM1394.03 359.406V354.406H1389.03V359.406H1394.03ZM1422.55 359.406V364.406H1427.55V359.406H1422.55ZM1410.83 231.867L1407.24 235.344L1407.25 235.359L1407.26 235.373L1410.83 231.867ZM1326.84 241.828L1323.34 238.257L1321.84 239.727V241.828H1326.84ZM1326.84 359.406H1321.84V364.406H1326.84V359.406ZM1354.77 359.406H1359.77V354.406H1354.77V359.406ZM1354.77 393V398H1359.77V393H1354.77ZM1260.44 393H1255.44V398H1260.44V393ZM1260.44 359.406V354.406H1255.44V359.406H1260.44ZM1288.95 359.406V364.406H1293.95V359.406H1288.95ZM1277.04 231.867L1273.45 235.344L1273.47 235.374L1273.5 235.403L1277.04 231.867ZM1193.25 240.852L1190.18 236.908L1188.25 238.41V240.852H1193.25ZM1193.25 359.406H1188.25V364.406H1193.25V359.406ZM1221.77 359.406H1226.77V354.406H1221.77V359.406ZM1221.77 393V398H1226.77V393H1221.77ZM1127.23 393H1122.23V398H1127.23V393ZM1127.23 359.406V354.406H1122.23V359.406H1127.23ZM1155.36 359.406V364.406H1160.36V359.406H1155.36ZM1155.36 224.25H1160.36V219.25H1155.36V224.25ZM1127.23 224.25H1122.23V229.25H1127.23V224.25ZM1127.23 195.656H1191.69V185.656H1127.23V195.656ZM1186.69 190.656V214.289H1196.69V190.656H1186.69ZM1191.69 219.289H1192.08V209.289H1191.69V219.289ZM1195.32 218.093C1199.61 214.438 1204.08 211.036 1208.74 207.885L1203.15 199.599C1198.17 202.959 1193.4 206.588 1188.83 210.485L1195.32 218.093ZM1208.77 207.869C1213.49 204.637 1218.39 201.845 1223.48 199.49L1219.27 190.417C1213.68 193.009 1208.29 196.077 1203.12 199.616L1208.77 207.869ZM1223.48 199.49C1228.53 197.149 1233.76 195.301 1239.19 193.944L1236.76 184.243C1230.73 185.751 1224.9 187.81 1219.27 190.417L1223.48 199.49ZM1239.16 193.951C1244.62 192.617 1250.28 191.945 1256.14 191.945V181.945C1249.51 181.945 1243.05 182.706 1236.79 184.237L1239.16 193.951ZM1256.14 191.945C1270.1 191.945 1281.84 194.562 1291.53 199.587L1296.14 190.71C1284.74 184.798 1271.35 181.945 1256.14 181.945V191.945ZM1291.58 199.61C1301.09 204.422 1308.49 211.996 1313.78 222.58L1322.72 218.108C1316.56 205.774 1307.68 196.552 1296.09 190.687L1291.58 199.61ZM1321.58 224.07C1326.41 219.75 1331.5 215.617 1336.84 211.671L1330.91 203.626C1325.31 207.753 1319.98 212.083 1314.92 216.618L1321.58 224.07ZM1336.91 211.626C1342.15 207.631 1347.56 204.212 1353.14 201.358L1348.59 192.454C1342.46 195.59 1336.54 199.332 1330.84 203.671L1336.91 211.626ZM1353.1 201.378C1358.81 198.527 1364.76 196.233 1370.97 194.495L1368.27 184.865C1361.46 186.773 1354.91 189.296 1348.63 192.434L1353.1 201.378ZM1370.97 194.495C1377.02 192.799 1383.34 191.945 1389.93 191.945V181.945C1382.46 181.945 1375.24 182.914 1368.27 184.865L1370.97 194.495ZM1389.93 191.945C1400.41 191.945 1409.68 193.381 1417.8 196.167L1421.05 186.708C1411.71 183.504 1401.32 181.945 1389.93 181.945V191.945ZM1417.8 196.167C1425.85 198.931 1432.61 203.098 1438.15 208.645L1445.22 201.574C1438.53 194.881 1430.44 189.934 1421.05 186.708L1417.8 196.167ZM1438.15 208.645C1443.63 214.118 1447.88 221.273 1450.8 230.285L1460.31 227.2C1456.98 216.941 1451.99 208.34 1445.22 201.574L1438.15 208.645ZM1450.82 230.362C1453.86 239.218 1455.44 249.907 1455.44 262.531H1465.44C1465.44 249.114 1463.76 237.277 1460.28 227.122L1450.82 230.362ZM1455.44 262.531V359.406H1465.44V262.531H1455.44ZM1460.44 364.406H1488.56V354.406H1460.44V364.406ZM1483.56 359.406V393H1493.56V359.406H1483.56ZM1488.56 388H1394.03V398H1488.56V388ZM1399.03 393V359.406H1389.03V393H1399.03ZM1394.03 364.406H1422.55V354.406H1394.03V364.406ZM1427.55 359.406V267.023H1417.55V359.406H1427.55ZM1427.55 267.023C1427.55 250.737 1423.43 237.554 1414.39 228.361L1407.26 235.373C1413.85 242.066 1417.55 252.32 1417.55 267.023H1427.55ZM1414.42 228.39C1405.4 219.068 1392.67 214.758 1377.04 214.758V224.758C1390.84 224.758 1400.63 228.52 1407.24 235.344L1414.42 228.39ZM1377.04 214.758C1367.5 214.758 1357.87 217.04 1348.2 221.46L1352.36 230.555C1360.92 226.643 1369.13 224.758 1377.04 224.758V214.758ZM1348.2 221.46C1338.61 225.844 1330.31 231.433 1323.34 238.257L1330.34 245.399C1336.4 239.463 1343.72 234.505 1352.36 230.555L1348.2 221.46ZM1321.84 241.828V359.406H1331.84V241.828H1321.84ZM1326.84 364.406H1354.77V354.406H1326.84V364.406ZM1349.77 359.406V393H1359.77V359.406H1349.77ZM1354.77 388H1260.44V398H1354.77V388ZM1265.44 393V359.406H1255.44V393H1265.44ZM1260.44 364.406H1288.95V354.406H1260.44V364.406ZM1293.95 359.406V267.023H1283.95V359.406H1293.95ZM1293.95 267.023C1293.95 250.716 1289.76 237.522 1280.57 228.332L1273.5 235.403C1280.2 242.098 1283.95 252.341 1283.95 267.023H1293.95ZM1280.63 228.39C1271.61 219.068 1258.88 214.758 1243.25 214.758V224.758C1257.05 224.758 1266.84 228.52 1273.45 235.344L1280.63 228.39ZM1243.25 214.758C1233.97 214.758 1224.72 216.976 1215.54 221.287L1219.79 230.338C1227.8 226.576 1235.61 224.758 1243.25 224.758V214.758ZM1215.54 221.287C1206.6 225.486 1198.14 230.696 1190.18 236.908L1196.32 244.795C1203.72 239.028 1211.54 234.212 1219.79 230.338L1215.54 221.287ZM1188.25 240.852V359.406H1198.25V240.852H1188.25ZM1193.25 364.406H1221.77V354.406H1193.25V364.406ZM1216.77 359.406V393H1226.77V359.406H1216.77ZM1221.77 388H1127.23V398H1221.77V388ZM1132.23 393V359.406H1122.23V393H1132.23ZM1127.23 364.406H1155.36V354.406H1127.23V364.406ZM1160.36 359.406V224.25H1150.36V359.406H1160.36ZM1155.36 219.25H1127.23V229.25H1155.36V219.25ZM1132.23 224.25V190.656H1122.23V224.25H1132.23ZM1562 296.516V291.516H1557V296.516H1562ZM1563.17 312.336L1558.24 313.136L1558.25 313.214L1558.26 313.29L1563.17 312.336ZM1566.88 325.812L1562.18 327.521L1562.19 327.534L1562.19 327.548L1566.88 325.812ZM1589.93 355.305L1587.27 359.536L1587.3 359.555L1587.33 359.574L1589.93 355.305ZM1656.73 360.773L1658.12 365.576L1658.14 365.57L1658.16 365.564L1656.73 360.773ZM1688.17 346.906L1692.48 344.364L1689.97 340.12L1685.69 342.565L1688.17 346.906ZM1702.82 371.711L1705.65 375.834L1709.5 373.19L1707.13 369.168L1702.82 371.711ZM1582.9 391.828L1581.07 396.481L1581.08 396.485L1581.09 396.488L1582.9 391.828ZM1552.82 371.516L1549.15 374.916L1549.17 374.93L1549.18 374.944L1552.82 371.516ZM1533.09 337.922L1528.37 339.572L1528.38 339.592L1528.39 339.612L1533.09 337.922ZM1532.12 250.227L1536.88 251.735L1536.89 251.728L1536.89 251.721L1532.12 250.227ZM1550.09 216.633L1546.25 213.422L1546.25 213.427L1550.09 216.633ZM1579.97 193.781L1582.1 198.302L1579.97 193.781ZM1659.46 192.414L1657.37 196.954L1657.4 196.97L1657.44 196.986L1659.46 192.414ZM1684.46 210.773L1680.61 213.968L1680.64 214.003L1680.67 214.038L1684.46 210.773ZM1699.11 236.75L1694.37 238.331L1694.38 238.359L1694.39 238.388L1699.11 236.75ZM1706.14 266.633L1701.18 267.269L1701.18 267.277L1701.18 267.285L1706.14 266.633ZM1707.31 281.672L1702.31 281.8L1702.32 281.864L1702.32 281.928L1707.31 281.672ZM1707.7 296.516V301.516H1712.7V296.516H1707.7ZM1596.57 219.562L1598.33 224.244L1598.35 224.234L1598.38 224.224L1596.57 219.562ZM1580.55 229.914L1584.09 233.45L1584.12 233.424L1584.14 233.398L1580.55 229.914ZM1569.81 246.32L1565.2 244.384L1565.19 244.424L1565.17 244.463L1569.81 246.32ZM1563.95 268.195L1559.02 267.399L1558.08 273.195H1563.95V268.195ZM1668.84 268.195V273.195H1674.19L1673.82 267.851L1668.84 268.195ZM1665.12 247.297L1660.32 248.67L1660.33 248.716L1660.34 248.76L1665.12 247.297ZM1641.49 219.758L1639.53 224.359L1641.49 219.758ZM1557 296.516C1557 302.468 1557.41 308.013 1558.24 313.136L1568.11 311.536C1567.38 307.023 1567 302.022 1567 296.516H1557ZM1558.26 313.29C1559.22 318.223 1560.53 322.968 1562.18 327.521L1571.58 324.104C1570.11 320.063 1568.94 315.824 1568.08 311.382L1558.26 313.29ZM1562.19 327.548C1567.35 341.477 1575.68 352.242 1587.27 359.536L1592.59 351.074C1583.08 345.086 1576.05 336.19 1571.57 324.077L1562.19 327.548ZM1587.33 359.574C1598.84 366.597 1611.8 370.07 1626.06 370.07V360.07C1613.5 360.07 1602.37 357.033 1592.53 351.036L1587.33 359.574ZM1626.06 370.07C1637.07 370.07 1647.76 368.575 1658.12 365.576L1655.34 355.971C1645.9 358.701 1636.15 360.07 1626.06 360.07V370.07ZM1658.16 365.564C1668.61 362.441 1679.45 357.65 1690.65 351.247L1685.69 342.565C1675.02 348.663 1664.89 353.117 1655.3 355.983L1658.16 365.564ZM1683.87 349.449L1698.52 374.253L1707.13 369.168L1692.48 344.364L1683.87 349.449ZM1699.99 367.588C1687.05 376.473 1674.12 383.015 1661.21 387.275L1664.35 396.771C1678.27 392.177 1692.03 385.178 1705.65 375.834L1699.99 367.588ZM1661.21 387.275C1648.32 391.532 1634.92 393.664 1620.98 393.664V403.664C1635.96 403.664 1650.42 401.369 1664.35 396.771L1661.21 387.275ZM1620.98 393.664C1607.88 393.664 1595.8 391.482 1584.71 387.168L1581.09 396.488C1593.43 401.289 1606.75 403.664 1620.98 403.664V393.664ZM1584.73 387.175C1573.82 382.885 1564.41 376.53 1556.46 368.087L1549.18 374.944C1558.15 384.47 1568.8 391.657 1581.07 396.481L1584.73 387.175ZM1556.49 368.115C1548.68 359.699 1542.43 349.111 1537.8 336.232L1528.39 339.612C1533.4 353.556 1540.29 365.364 1549.15 374.916L1556.49 368.115ZM1537.81 336.272C1533.35 323.507 1531.06 308.461 1531.06 291.047H1521.06C1521.06 309.31 1523.46 325.514 1528.37 339.572L1537.81 336.272ZM1531.06 291.047C1531.06 277.065 1533.01 263.97 1536.88 251.735L1527.35 248.719C1523.15 262.004 1521.06 276.123 1521.06 291.047H1531.06ZM1536.89 251.721C1540.75 239.399 1546.44 228.796 1553.92 219.839L1546.25 213.427C1537.85 223.48 1531.56 235.272 1527.35 248.732L1536.89 251.721ZM1553.92 219.844C1561.51 210.786 1570.88 203.606 1582.1 198.302L1577.83 189.261C1565.36 195.155 1554.81 203.209 1546.25 213.422L1553.92 219.844ZM1582.1 198.302C1593.16 193.076 1606.21 190.383 1621.38 190.383V180.383C1605.03 180.383 1590.47 183.289 1577.83 189.261L1582.1 198.302ZM1621.38 190.383C1636.13 190.383 1648.06 192.658 1657.37 196.954L1661.56 187.874C1650.55 182.795 1637.09 180.383 1621.38 180.383V190.383ZM1657.44 196.986C1667.11 201.27 1674.79 206.95 1680.61 213.968L1688.31 207.579C1681.38 199.232 1672.39 192.672 1661.49 187.843L1657.44 196.986ZM1680.67 214.038C1686.75 221.081 1691.31 229.163 1694.37 238.331L1703.85 235.169C1700.4 224.806 1695.2 215.57 1688.25 207.509L1680.67 214.038ZM1694.39 238.388C1697.66 247.831 1699.92 257.457 1701.18 267.269L1711.1 265.997C1709.75 255.496 1707.33 245.2 1703.83 235.112L1694.39 238.388ZM1701.18 267.285C1701.81 272.056 1702.19 276.894 1702.31 281.8L1712.31 281.544C1712.18 276.293 1711.77 271.105 1711.1 265.981L1701.18 267.285ZM1702.32 281.928C1702.58 286.925 1702.7 291.788 1702.7 296.516H1712.7C1712.7 291.608 1712.57 286.575 1712.31 281.416L1702.32 281.928ZM1707.7 291.516H1562V301.516H1707.7V291.516ZM1618.84 210.852C1609.9 210.852 1601.84 212.157 1594.76 214.901L1598.38 224.224C1604.06 222.02 1610.85 220.852 1618.84 220.852V210.852ZM1594.81 214.881C1587.91 217.47 1581.94 221.317 1576.97 226.43L1584.14 233.398C1588.03 229.397 1592.73 226.342 1598.33 224.244L1594.81 214.881ZM1577.02 226.379C1572.08 231.319 1568.16 237.352 1565.2 244.384L1574.42 248.256C1576.94 242.268 1580.18 237.363 1584.09 233.45L1577.02 226.379ZM1565.17 244.463C1562.41 251.366 1560.37 259.021 1559.02 267.399L1568.89 268.991C1570.14 261.223 1572.01 254.295 1574.45 248.177L1565.17 244.463ZM1563.95 273.195H1668.84V263.195H1563.95V273.195ZM1673.82 267.851C1673.28 259.969 1671.98 252.622 1669.91 245.833L1660.34 248.76C1662.17 254.732 1663.35 261.317 1663.85 268.539L1673.82 267.851ZM1669.93 245.923C1667.94 238.933 1664.76 232.762 1660.37 227.494L1652.69 233.896C1656.11 238.003 1658.67 242.901 1660.32 248.67L1669.93 245.923ZM1660.37 227.494C1655.91 222.144 1650.23 218.043 1643.45 215.157L1639.53 224.359C1644.99 226.681 1649.34 229.872 1652.69 233.896L1660.37 227.494ZM1643.45 215.157C1636.53 212.214 1628.27 210.852 1618.84 210.852V220.852C1627.37 220.852 1634.21 222.093 1639.53 224.359L1643.45 215.157Z" fill="url(#paint0_linear_244_10)"/>
<defs>
<linearGradient id="paint0_linear_244_10" x1="-3.99993" y1="-202.5" x2="1802" y2="715" gradientUnits="userSpaceOnUse">
<stop stop-color="#FF8888"/>
<stop offset="0.529167" stop-color="#FF1B96" stop-opacity="0.559375"/>
<stop offset="1" stop-color="#59F5FF" stop-opacity="0.5"/>
</linearGradient>
<clipPath id="clip0_244_10">
<rect width="500" height="500" rx="250" fill="white"/>
</clipPath>
</defs>
</svg>
