<svg width="1364" height="500" viewBox="0 0 1364 500" fill="none" xmlns="http://www.w3.org/2000/svg">
<g clip-path="url(#clip0_244_10)">
<rect width="500" height="500" rx="250" fill="#D4F357"/>
<path d="M574.418 -77C565.82 -24.979 474.882 472.684 -252.093 498.982C132.849 505.192 584 745 584 745L574.418 -77Z" fill="#47CB74"/>
<path d="M-14.4179 530C-5.81958 477.979 85.1183 -19.6844 812.093 -45.9824C427.151 -52.1921 -24 -292 -24 -292L-14.4179 530Z" fill="#47CB74"/>
</g>
<path d="M138.477 129.07H187.695V331.805H210.547V357H138.477V331.805H160.449V154.266H138.477V129.07ZM324.805 245.965C324.805 241.863 323.828 238.396 321.875 235.564C320.02 232.635 317.578 230.291 314.551 228.533C311.523 226.678 308.154 225.359 304.443 224.578C300.732 223.699 297.119 223.26 293.604 223.26C289.697 223.26 286.084 223.699 282.764 224.578C279.541 225.457 276.758 226.727 274.414 228.387C272.07 230.047 270.215 232.098 268.848 234.539C267.578 236.883 266.943 239.52 266.943 242.449C266.943 247.527 268.457 251.58 271.484 254.607C274.609 257.537 279.785 260.271 287.012 262.811L316.162 273.064C328.662 277.264 337.793 282.977 343.555 290.203C349.316 297.43 352.197 306.072 352.197 316.131C352.197 322.869 350.83 329.07 348.096 334.734C345.459 340.301 341.65 345.086 336.67 349.09C331.787 352.996 325.879 356.023 318.945 358.172C312.012 360.418 304.297 361.541 295.801 361.541C283.984 361.541 274.365 359.637 266.943 355.828C259.521 352.02 253.809 346.99 249.805 340.74H234.57V315.545H264.893C264.893 319.744 265.771 323.357 267.529 326.385C269.385 329.314 271.777 331.707 274.707 333.562C277.734 335.418 281.104 336.785 284.814 337.664C288.623 338.543 292.48 338.982 296.387 338.982C300.195 338.982 303.857 338.543 307.373 337.664C310.889 336.688 313.965 335.32 316.602 333.562C319.336 331.707 321.484 329.51 323.047 326.971C324.609 324.432 325.391 321.551 325.391 318.328C325.391 313.445 323.779 309.295 320.557 305.877C317.432 302.459 312.061 299.383 304.443 296.648L275.439 285.809C263.623 281.609 254.834 276.287 249.072 269.842C243.408 263.299 240.576 255.145 240.576 245.379C240.576 238.934 241.748 232.977 244.092 227.508C246.533 222.039 250 217.352 254.492 213.445C259.082 209.441 264.648 206.316 271.191 204.07C277.734 201.824 285.205 200.701 293.604 200.701C304.443 200.701 313.525 202.215 320.85 205.242C328.174 208.27 334.766 213.445 340.625 220.77H354.834V245.965H324.805ZM520.508 331.805H538.965L521.387 281.414H435.986L418.848 331.805H441.699V357H369.629V331.805H388.965L458.105 134.93H501.318L570.312 331.805H592.578V357H520.508V331.805ZM444.336 257.098H512.891L478.32 157.781L444.336 257.098ZM708.594 331.805H729.98V262.518C729.98 250.896 727.002 242.107 721.045 236.15C715.186 230.096 706.738 227.068 695.703 227.068C689.355 227.068 682.959 228.582 676.514 231.609C670.068 234.637 663.965 238.396 658.203 242.889V331.805H679.59V357H608.691V331.805H629.785V230.438H608.691V205.242H657.031V223.113H657.324C660.547 220.281 663.965 217.596 667.578 215.057C671.289 212.518 675.146 210.32 679.15 208.465C683.154 206.609 687.305 205.145 691.602 204.07C695.996 202.996 700.586 202.459 705.371 202.459C713.477 202.459 720.801 203.582 727.344 205.828C733.887 208.074 739.453 211.492 744.043 216.082C748.633 220.672 752.148 226.58 754.59 233.807C757.129 240.936 758.398 249.383 758.398 259.148V331.805H779.492V357H708.594V331.805ZM807.617 205.242H857.129V331.805H879.98V357H807.91V331.805H829.59V230.438H807.617V205.242ZM824.463 151.482C824.463 148.943 824.951 146.551 825.928 144.305C827.002 141.961 828.369 139.959 830.029 138.299C831.787 136.541 833.838 135.174 836.182 134.197C838.525 133.123 841.016 132.586 843.652 132.586C846.191 132.586 848.584 133.123 850.83 134.197C853.174 135.174 855.176 136.541 856.836 138.299C858.594 139.959 859.961 141.961 860.938 144.305C862.012 146.551 862.549 148.943 862.549 151.482C862.549 154.119 862.012 156.609 860.938 158.953C859.961 161.297 858.594 163.396 856.836 165.252C855.176 167.01 853.174 168.426 850.83 169.5C848.584 170.477 846.191 170.965 843.652 170.965C841.016 170.965 838.525 170.477 836.182 169.5C833.838 168.426 831.787 167.01 830.029 165.252C828.369 163.396 827.002 161.297 825.928 158.953C824.951 156.609 824.463 154.119 824.463 151.482ZM905.176 205.242H953.516V222.967H953.809C957.129 220.135 960.596 217.498 964.209 215.057C967.92 212.518 971.777 210.32 975.781 208.465C979.785 206.609 983.936 205.145 988.232 204.07C992.627 202.996 997.168 202.459 1001.86 202.459C1012.79 202.459 1022.22 204.51 1030.13 208.611C1038.04 212.615 1044.14 218.914 1048.44 227.508C1052.15 224.188 1056.05 221.014 1060.16 217.986C1064.26 214.861 1068.51 212.176 1072.9 209.93C1077.39 207.684 1082.08 205.877 1086.96 204.51C1091.85 203.143 1096.92 202.459 1102.2 202.459C1110.4 202.459 1117.77 203.582 1124.32 205.828C1130.86 208.074 1136.43 211.492 1141.02 216.082C1145.61 220.672 1149.07 226.58 1151.42 233.807C1153.86 240.936 1155.08 249.383 1155.08 259.148V331.805H1176.17V357H1105.27V331.805H1126.66V262.518C1126.66 250.896 1123.73 242.107 1117.87 236.15C1112.01 230.096 1103.56 227.068 1092.53 227.068C1085.99 227.068 1079.3 228.631 1072.46 231.756C1065.62 234.881 1059.77 238.836 1054.88 243.621V331.805H1075.83V357H1005.08V331.805H1026.46V262.518C1026.46 250.896 1023.49 242.107 1017.53 236.15C1011.67 230.096 1003.22 227.068 992.188 227.068C985.84 227.068 979.443 228.582 972.998 231.609C966.553 234.637 960.449 238.396 954.688 242.889V331.805H976.074V357H905.176V331.805H926.27V230.438H905.176V205.242ZM1231.25 284.637C1231.25 288.934 1231.54 292.889 1232.13 296.502C1232.81 300.018 1233.74 303.387 1234.91 306.609C1238.53 316.375 1244.29 323.748 1252.2 328.729C1260.21 333.611 1269.24 336.053 1279.3 336.053C1287.21 336.053 1294.87 334.979 1302.29 332.83C1309.81 330.584 1317.68 327.117 1325.88 322.43L1336.87 341.033C1326.9 347.869 1316.89 352.947 1306.84 356.268C1296.78 359.588 1286.33 361.248 1275.49 361.248C1265.23 361.248 1255.71 359.539 1246.92 356.121C1238.23 352.703 1230.71 347.625 1224.37 340.887C1218.12 334.148 1213.18 325.75 1209.57 315.691C1206.05 305.633 1204.3 293.914 1204.3 280.535C1204.3 269.695 1205.81 259.49 1208.84 249.92C1211.87 240.252 1216.36 231.854 1222.31 224.725C1228.37 217.498 1235.84 211.785 1244.73 207.586C1253.61 203.387 1263.96 201.287 1275.78 201.287C1287.21 201.287 1296.73 203.045 1304.35 206.561C1312.06 209.979 1318.31 214.568 1323.1 220.33C1327.98 225.994 1331.64 232.488 1334.08 239.812C1336.62 247.137 1338.38 254.607 1339.36 262.225C1339.84 265.936 1340.14 269.695 1340.23 273.504C1340.43 277.312 1340.53 281.023 1340.53 284.637H1231.25ZM1273.88 224.139C1267.53 224.139 1261.96 225.066 1257.18 226.922C1252.49 228.68 1248.49 231.268 1245.17 234.686C1241.85 238.006 1239.16 242.107 1237.11 246.99C1235.16 251.873 1233.69 257.342 1232.71 263.396H1311.38C1310.99 257.732 1310.06 252.508 1308.59 247.723C1307.23 242.938 1305.08 238.787 1302.15 235.271C1299.22 231.756 1295.46 229.021 1290.87 227.068C1286.28 225.115 1280.62 224.139 1273.88 224.139Z" fill="#79118A"/>
<path d="M138.477 129.07V124.07H133.477V129.07H138.477ZM187.695 129.07H192.695V124.07H187.695V129.07ZM187.695 331.805H182.695V336.805H187.695V331.805ZM210.547 331.805H215.547V326.805H210.547V331.805ZM210.547 357V362H215.547V357H210.547ZM138.477 357H133.477V362H138.477V357ZM138.477 331.805V326.805H133.477V331.805H138.477ZM160.449 331.805V336.805H165.449V331.805H160.449ZM160.449 154.266H165.449V149.266H160.449V154.266ZM138.477 154.266H133.477V159.266H138.477V154.266ZM138.477 134.07H187.695V124.07H138.477V134.07ZM182.695 129.07V331.805H192.695V129.07H182.695ZM187.695 336.805H210.547V326.805H187.695V336.805ZM205.547 331.805V357H215.547V331.805H205.547ZM210.547 352H138.477V362H210.547V352ZM143.477 357V331.805H133.477V357H143.477ZM138.477 336.805H160.449V326.805H138.477V336.805ZM165.449 331.805V154.266H155.449V331.805H165.449ZM160.449 149.266H138.477V159.266H160.449V149.266ZM143.477 154.266V129.07H133.477V154.266H143.477ZM324.805 245.965H319.805V250.965H324.805V245.965ZM321.875 235.564L317.651 238.24L317.703 238.322L317.759 238.403L321.875 235.564ZM314.551 228.533L311.938 232.796L311.989 232.827L312.04 232.857L314.551 228.533ZM304.443 224.578L303.291 229.444L303.352 229.458L303.413 229.471L304.443 224.578ZM282.764 224.578L281.484 219.745L281.466 219.749L281.448 219.754L282.764 224.578ZM268.848 234.539L264.485 232.096L264.468 232.127L264.451 232.158L268.848 234.539ZM271.484 254.607L267.949 258.143L268.006 258.2L268.065 258.255L271.484 254.607ZM287.012 262.811L288.671 258.094L288.669 258.093L287.012 262.811ZM316.162 273.064L314.503 277.781L314.536 277.793L314.57 277.804L316.162 273.064ZM348.096 334.734L343.593 332.561L343.585 332.577L343.577 332.594L348.096 334.734ZM336.67 349.09L339.793 352.994L339.803 352.987L336.67 349.09ZM318.945 358.172L317.465 353.396L317.435 353.405L317.404 353.415L318.945 358.172ZM249.805 340.74L254.015 338.043L252.54 335.74H249.805V340.74ZM234.57 340.74H229.57V345.74H234.57V340.74ZM234.57 315.545V310.545H229.57V315.545H234.57ZM264.893 315.545H269.893V310.545H264.893V315.545ZM267.529 326.385L263.205 328.895L263.254 328.979L263.305 329.06L267.529 326.385ZM274.707 333.562L272.032 337.787L272.063 337.806L272.094 337.826L274.707 333.562ZM284.814 337.664L283.662 342.529L283.676 342.533L283.69 342.536L284.814 337.664ZM307.373 337.664L308.586 342.515L308.649 342.499L308.711 342.482L307.373 337.664ZM316.602 333.562L319.375 337.723L319.392 337.711L319.409 337.7L316.602 333.562ZM320.557 305.877L316.866 309.251L316.892 309.279L316.919 309.307L320.557 305.877ZM304.443 296.648L302.693 301.332L302.723 301.343L302.754 301.354L304.443 296.648ZM275.439 285.809L277.19 281.125L277.152 281.111L277.114 281.097L275.439 285.809ZM249.072 269.842L245.292 273.114L245.318 273.144L245.345 273.174L249.072 269.842ZM244.092 227.508L239.526 225.47L239.511 225.504L239.496 225.538L244.092 227.508ZM254.492 213.445L257.773 217.218L257.779 217.213L254.492 213.445ZM340.625 220.77L336.721 223.893L338.222 225.77H340.625V220.77ZM354.834 220.77H359.834V215.77H354.834V220.77ZM354.834 245.965V250.965H359.834V245.965H354.834ZM329.805 245.965C329.805 241.048 328.623 236.543 325.991 232.726L317.759 238.403C319.033 240.25 319.805 242.678 319.805 245.965H329.805ZM326.099 232.889C323.809 229.273 320.777 226.367 317.061 224.209L312.04 232.857C314.379 234.215 316.23 235.996 317.651 238.24L326.099 232.889ZM317.164 224.27C313.616 222.096 309.706 220.576 305.473 219.685L303.413 229.471C306.603 230.142 309.431 231.259 311.938 232.796L317.164 224.27ZM305.596 219.713C301.539 218.752 297.538 218.26 293.604 218.26V228.26C296.7 228.26 299.926 228.647 303.291 229.444L305.596 219.713ZM293.604 218.26C289.323 218.26 285.275 218.741 281.484 219.745L284.043 229.412C286.893 228.657 290.071 228.26 293.604 228.26V218.26ZM281.448 219.754C277.751 220.762 274.416 222.258 271.524 224.307L277.304 232.467C279.1 231.195 281.331 230.152 284.079 229.402L281.448 219.754ZM271.524 224.307C268.59 226.385 266.225 228.989 264.485 232.096L273.21 236.982C274.205 235.206 275.55 233.709 277.304 232.467L271.524 224.307ZM264.451 232.158C262.747 235.303 261.943 238.772 261.943 242.449H271.943C271.943 240.267 272.409 238.462 273.244 236.92L264.451 232.158ZM261.943 242.449C261.943 248.588 263.812 254.006 267.949 258.143L275.02 251.072C273.102 249.154 271.943 246.466 271.943 242.449H261.943ZM268.065 258.255C271.95 261.898 277.908 264.912 285.354 267.528L288.669 258.093C281.662 255.631 277.269 253.176 274.904 250.96L268.065 258.255ZM285.353 267.527L314.503 277.781L317.821 268.348L288.671 258.094L285.353 267.527ZM314.57 277.804C326.529 281.822 334.688 287.103 339.645 293.32L347.464 287.086C340.898 278.85 330.796 272.706 317.754 268.325L314.57 277.804ZM339.645 293.32C344.637 299.581 347.197 307.098 347.197 316.131H357.197C357.197 305.046 353.996 295.278 347.464 287.086L339.645 293.32ZM347.197 316.131C347.197 322.171 345.977 327.622 343.593 332.561L352.598 336.908C355.683 330.518 357.197 323.567 357.197 316.131H347.197ZM343.577 332.594C341.276 337.452 337.952 341.644 333.537 345.193L339.803 352.987C345.349 348.528 349.642 343.15 352.614 336.875L343.577 332.594ZM333.546 345.185C329.224 348.643 323.896 351.403 317.465 353.396L320.425 362.948C327.862 360.644 334.35 357.349 339.793 352.994L333.546 345.185ZM317.404 353.415C311.043 355.476 303.858 356.541 295.801 356.541V366.541C304.735 366.541 312.98 365.36 320.486 362.929L317.404 353.415ZM295.801 356.541C284.468 356.541 275.71 354.707 269.226 351.38L264.661 360.277C273.021 364.567 283.5 366.541 295.801 366.541V356.541ZM269.226 351.38C262.491 347.923 257.485 343.461 254.015 338.043L245.595 343.437C250.132 350.52 256.552 356.116 264.661 360.277L269.226 351.38ZM249.805 335.74H234.57V345.74H249.805V335.74ZM239.57 340.74V315.545H229.57V340.74H239.57ZM234.57 320.545H264.893V310.545H234.57V320.545ZM259.893 315.545C259.893 320.45 260.924 324.966 263.205 328.895L271.853 323.874C270.619 321.749 269.893 319.039 269.893 315.545H259.893ZM263.305 329.06C265.556 332.614 268.478 335.536 272.032 337.787L277.382 329.338C275.077 327.878 273.213 326.015 271.753 323.71L263.305 329.06ZM272.094 337.826C275.606 339.978 279.474 341.537 283.662 342.529L285.967 332.799C282.733 332.033 279.863 330.858 277.32 329.299L272.094 337.826ZM283.69 342.536C287.867 343.5 292.102 343.982 296.387 343.982V333.982C292.859 333.982 289.379 333.586 285.939 332.792L283.69 342.536ZM296.387 343.982C300.583 343.982 304.654 343.498 308.586 342.515L306.16 332.813C303.061 333.588 299.807 333.982 296.387 333.982V343.982ZM308.711 342.482C312.661 341.384 316.237 339.815 319.375 337.723L313.828 329.402C311.693 330.826 309.116 331.991 306.035 332.846L308.711 342.482ZM319.409 337.7C322.665 335.49 325.333 332.795 327.305 329.591L318.789 324.35C317.635 326.224 316.007 327.924 313.794 329.425L319.409 337.7ZM327.305 329.591C329.392 326.2 330.391 322.398 330.391 318.328H320.391C320.391 320.703 319.827 322.663 318.789 324.35L327.305 329.591ZM330.391 318.328C330.391 312.226 328.329 306.832 324.195 302.447L316.919 309.307C319.229 311.757 320.391 314.665 320.391 318.328H330.391ZM324.247 302.503C320.304 298.191 314.022 294.774 306.133 291.942L302.754 301.354C310.099 303.991 314.559 306.727 316.866 309.251L324.247 302.503ZM306.194 291.965L277.19 281.125L273.689 290.492L302.693 301.332L306.194 291.965ZM277.114 281.097C265.755 277.061 257.808 272.112 252.8 266.509L245.345 273.174C251.86 280.462 261.491 286.158 273.765 290.52L277.114 281.097ZM252.853 266.569C248.077 261.052 245.576 254.107 245.576 245.379H235.576C235.576 256.182 238.74 265.545 245.292 273.114L252.853 266.569ZM245.576 245.379C245.576 239.554 246.632 234.273 248.688 229.477L239.496 225.538C236.864 231.68 235.576 238.313 235.576 245.379H245.576ZM248.657 229.546C250.804 224.738 253.834 220.644 257.773 217.218L251.211 209.672C246.166 214.059 242.262 219.34 239.526 225.47L248.657 229.546ZM257.779 217.213C261.82 213.688 266.801 210.864 272.815 208.799L269.568 199.341C262.496 201.769 256.344 205.195 251.205 209.677L257.779 217.213ZM272.815 208.799C278.737 206.766 285.643 205.701 293.604 205.701V195.701C284.767 195.701 276.732 196.882 269.568 199.341L272.815 208.799ZM293.604 205.701C304.014 205.701 312.4 207.16 318.94 209.863L322.76 200.621C314.651 197.27 304.873 195.701 293.604 195.701V205.701ZM318.94 209.863C325.351 212.513 331.292 217.107 336.721 223.893L344.529 217.646C338.239 209.783 330.996 204.026 322.76 200.621L318.94 209.863ZM340.625 225.77H354.834V215.77H340.625V225.77ZM349.834 220.77V245.965H359.834V220.77H349.834ZM354.834 240.965H324.805V250.965H354.834V240.965ZM520.508 331.805V326.805H515.508V331.805H520.508ZM538.965 331.805V336.805H546.005L543.686 330.158L538.965 331.805ZM521.387 281.414L526.108 279.767L524.938 276.414H521.387V281.414ZM435.986 281.414V276.414H432.406L431.253 279.804L435.986 281.414ZM418.848 331.805L414.114 330.195L411.866 336.805H418.848V331.805ZM441.699 331.805H446.699V326.805H441.699V331.805ZM441.699 357V362H446.699V357H441.699ZM369.629 357H364.629V362H369.629V357ZM369.629 331.805V326.805H364.629V331.805H369.629ZM388.965 331.805V336.805H392.508L393.682 333.461L388.965 331.805ZM458.105 134.93V129.93H454.562L453.388 133.273L458.105 134.93ZM501.318 134.93L506.037 133.276L504.864 129.93H501.318V134.93ZM570.312 331.805L565.594 333.458L566.767 336.805H570.312V331.805ZM592.578 331.805H597.578V326.805H592.578V331.805ZM592.578 357V362H597.578V357H592.578ZM520.508 357H515.508V362H520.508V357ZM444.336 257.098L439.605 255.479L437.34 262.098H444.336V257.098ZM512.891 257.098V262.098H519.925L517.613 255.454L512.891 257.098ZM478.32 157.781L483.042 156.138L478.28 142.455L473.59 156.162L478.32 157.781ZM520.508 336.805H538.965V326.805H520.508V336.805ZM543.686 330.158L526.108 279.767L516.666 283.061L534.244 333.452L543.686 330.158ZM521.387 276.414H435.986V286.414H521.387V276.414ZM431.253 279.804L414.114 330.195L423.581 333.415L440.72 283.024L431.253 279.804ZM418.848 336.805H441.699V326.805H418.848V336.805ZM436.699 331.805V357H446.699V331.805H436.699ZM441.699 352H369.629V362H441.699V352ZM374.629 357V331.805H364.629V357H374.629ZM369.629 336.805H388.965V326.805H369.629V336.805ZM393.682 333.461L462.823 136.586L453.388 133.273L384.247 330.148L393.682 333.461ZM458.105 139.93H501.318V129.93H458.105V139.93ZM496.6 136.583L565.594 333.458L575.031 330.151L506.037 133.276L496.6 136.583ZM570.312 336.805H592.578V326.805H570.312V336.805ZM587.578 331.805V357H597.578V331.805H587.578ZM592.578 352H520.508V362H592.578V352ZM525.508 357V331.805H515.508V357H525.508ZM444.336 262.098H512.891V252.098H444.336V262.098ZM517.613 255.454L483.042 156.138L473.598 159.425L508.169 258.741L517.613 255.454ZM473.59 156.162L439.605 255.479L449.067 258.716L483.051 159.4L473.59 156.162ZM708.594 331.805V326.805H703.594V331.805H708.594ZM729.98 331.805V336.805H734.98V331.805H729.98ZM721.045 236.15L717.452 239.627L717.48 239.657L717.509 239.686L721.045 236.15ZM658.203 242.889L655.129 238.946L653.203 240.447V242.889H658.203ZM658.203 331.805H653.203V336.805H658.203V331.805ZM679.59 331.805H684.59V326.805H679.59V331.805ZM679.59 357V362H684.59V357H679.59ZM608.691 357H603.691V362H608.691V357ZM608.691 331.805V326.805H603.691V331.805H608.691ZM629.785 331.805V336.805H634.785V331.805H629.785ZM629.785 230.438H634.785V225.438H629.785V230.438ZM608.691 230.438H603.691V235.438H608.691V230.438ZM608.691 205.242V200.242H603.691V205.242H608.691ZM657.031 205.242H662.031V200.242H657.031V205.242ZM657.031 223.113H652.031V228.113H657.031V223.113ZM657.324 223.113V228.113H659.209L660.625 226.869L657.324 223.113ZM667.578 215.057L664.755 210.93L664.729 210.948L664.703 210.966L667.578 215.057ZM691.602 204.07L690.414 199.213L690.402 199.216L690.389 199.22L691.602 204.07ZM754.59 233.807L749.853 235.407L749.866 235.446L749.88 235.484L754.59 233.807ZM758.398 331.805H753.398V336.805H758.398V331.805ZM779.492 331.805H784.492V326.805H779.492V331.805ZM779.492 357V362H784.492V357H779.492ZM708.594 357H703.594V362H708.594V357ZM708.594 336.805H729.98V326.805H708.594V336.805ZM734.98 331.805V262.518H724.98V331.805H734.98ZM734.98 262.518C734.98 250.084 731.785 239.819 724.58 232.615L717.509 239.686C722.219 244.396 724.98 251.709 724.98 262.518H734.98ZM724.638 232.673C717.57 225.37 707.654 222.068 695.703 222.068V232.068C705.822 232.068 712.801 234.822 717.452 239.627L724.638 232.673ZM695.703 222.068C688.536 222.068 681.417 223.782 674.388 227.084L678.639 236.135C684.501 233.382 690.175 232.068 695.703 232.068V222.068ZM674.388 227.084C667.597 230.273 661.176 234.23 655.129 238.946L661.277 246.832C666.753 242.563 672.54 239 678.639 236.135L674.388 227.084ZM653.203 242.889V331.805H663.203V242.889H653.203ZM658.203 336.805H679.59V326.805H658.203V336.805ZM674.59 331.805V357H684.59V331.805H674.59ZM679.59 352H608.691V362H679.59V352ZM613.691 357V331.805H603.691V357H613.691ZM608.691 336.805H629.785V326.805H608.691V336.805ZM634.785 331.805V230.438H624.785V331.805H634.785ZM629.785 225.438H608.691V235.438H629.785V225.438ZM613.691 230.438V205.242H603.691V230.438H613.691ZM608.691 210.242H657.031V200.242H608.691V210.242ZM652.031 205.242V223.113H662.031V205.242H652.031ZM657.031 228.113H657.324V218.113H657.031V228.113ZM660.625 226.869C663.708 224.16 666.983 221.586 670.453 219.148L664.703 210.966C660.947 213.606 657.386 216.403 654.024 219.357L660.625 226.869ZM670.402 219.183C673.888 216.798 677.505 214.738 681.253 213.001L677.048 203.928C672.788 205.902 668.69 208.238 664.755 210.93L670.402 219.183ZM681.253 213.001C684.97 211.279 688.822 209.919 692.814 208.921L690.389 199.22C685.787 200.37 681.339 201.94 677.048 203.928L681.253 213.001ZM692.789 208.927C696.773 207.953 700.963 207.459 705.371 207.459V197.459C700.209 197.459 695.219 198.039 690.414 199.213L692.789 208.927ZM705.371 207.459C713.017 207.459 719.781 208.518 725.72 210.557L728.967 201.099C721.821 198.646 713.936 197.459 705.371 197.459V207.459ZM725.72 210.557C731.592 212.573 736.491 215.601 740.507 219.618L747.579 212.546C742.415 207.383 736.182 203.576 728.967 201.099L725.72 210.557ZM740.507 219.618C744.466 223.576 747.615 228.782 749.853 235.407L759.327 232.206C756.682 224.378 752.8 217.768 747.579 212.546L740.507 219.618ZM749.88 235.484C752.18 241.944 753.398 249.797 753.398 259.148H763.398C763.398 248.969 762.077 239.927 759.3 232.129L749.88 235.484ZM753.398 259.148V331.805H763.398V259.148H753.398ZM758.398 336.805H779.492V326.805H758.398V336.805ZM774.492 331.805V357H784.492V331.805H774.492ZM779.492 352H708.594V362H779.492V352ZM713.594 357V331.805H703.594V357H713.594ZM807.617 205.242V200.242H802.617V205.242H807.617ZM857.129 205.242H862.129V200.242H857.129V205.242ZM857.129 331.805H852.129V336.805H857.129V331.805ZM879.98 331.805H884.98V326.805H879.98V331.805ZM879.98 357V362H884.98V357H879.98ZM807.91 357H802.91V362H807.91V357ZM807.91 331.805V326.805H802.91V331.805H807.91ZM829.59 331.805V336.805H834.59V331.805H829.59ZM829.59 230.438H834.59V225.438H829.59V230.438ZM807.617 230.438H802.617V235.438H807.617V230.438ZM825.928 144.305L821.382 142.221L821.362 142.266L821.342 142.311L825.928 144.305ZM836.182 134.197L838.105 138.813L838.185 138.779L838.265 138.743L836.182 134.197ZM850.83 134.197L848.673 138.708L848.789 138.763L848.907 138.813L850.83 134.197ZM856.836 138.299L853.201 141.732L853.299 141.836L853.403 141.934L856.836 138.299ZM860.938 144.305L856.322 146.228L856.371 146.346L856.427 146.462L860.938 144.305ZM860.938 158.953L856.392 156.87L856.356 156.949L856.322 157.03L860.938 158.953ZM856.836 165.252L853.206 161.813L853.201 161.819L856.836 165.252ZM850.83 169.5L852.824 174.085L852.869 174.066L852.913 174.045L850.83 169.5ZM836.182 169.5L834.098 174.045L834.178 174.082L834.259 174.115L836.182 169.5ZM830.029 165.252L826.303 168.586L826.396 168.689L826.494 168.787L830.029 165.252ZM825.928 158.953L821.312 160.876L821.346 160.957L821.382 161.036L825.928 158.953ZM807.617 210.242H857.129V200.242H807.617V210.242ZM852.129 205.242V331.805H862.129V205.242H852.129ZM857.129 336.805H879.98V326.805H857.129V336.805ZM874.98 331.805V357H884.98V331.805H874.98ZM879.98 352H807.91V362H879.98V352ZM812.91 357V331.805H802.91V357H812.91ZM807.91 336.805H829.59V326.805H807.91V336.805ZM834.59 331.805V230.438H824.59V331.805H834.59ZM829.59 225.438H807.617V235.438H829.59V225.438ZM812.617 230.438V205.242H802.617V230.438H812.617ZM829.463 151.482C829.463 149.604 829.82 147.892 830.513 146.298L821.342 142.311C820.082 145.209 819.463 148.283 819.463 151.482H829.463ZM830.473 146.388C831.324 144.531 832.364 143.035 833.565 141.834L826.494 134.763C824.374 136.883 822.68 139.39 821.382 142.221L830.473 146.388ZM833.565 141.834C834.851 140.548 836.351 139.544 838.105 138.813L834.259 129.582C831.325 130.804 828.723 132.534 826.494 134.763L833.565 141.834ZM838.265 138.743C839.94 137.975 841.718 137.586 843.652 137.586V127.586C840.313 127.586 837.111 128.271 834.098 129.652L838.265 138.743ZM843.652 137.586C845.46 137.586 847.114 137.962 848.673 138.708L852.987 129.687C850.054 128.284 846.923 127.586 843.652 127.586V137.586ZM848.907 138.813C850.637 139.533 852.046 140.509 853.201 141.732L860.471 134.866C858.305 132.573 855.711 130.814 852.753 129.582L848.907 138.813ZM853.403 141.934C854.625 143.089 855.601 144.498 856.322 146.228L865.553 142.382C864.32 139.424 862.562 136.829 860.269 134.664L853.403 141.934ZM856.427 146.462C857.172 148.021 857.549 149.675 857.549 151.482H867.549C867.549 148.212 866.851 145.081 865.448 142.147L856.427 146.462ZM857.549 151.482C857.549 153.417 857.16 155.195 856.392 156.87L865.483 161.036C866.864 158.024 867.549 154.821 867.549 151.482H857.549ZM856.322 157.03C855.581 158.809 854.549 160.396 853.206 161.813L860.466 168.691C862.639 166.397 864.341 163.785 865.553 160.876L856.322 157.03ZM853.201 161.819C852.01 163.079 850.546 164.13 848.747 164.955L852.913 174.045C855.802 172.721 858.341 170.94 860.471 168.685L853.201 161.819ZM848.836 164.915C847.243 165.608 845.531 165.965 843.652 165.965V175.965C846.852 175.965 849.925 175.345 852.824 174.085L848.836 164.915ZM843.652 165.965C841.65 165.965 839.816 165.598 838.105 164.885L834.259 174.115C837.235 175.356 840.381 175.965 843.652 175.965V165.965ZM838.265 164.955C836.441 164.119 834.887 163.038 833.565 161.716L826.494 168.787C828.687 170.981 831.235 172.733 834.098 174.045L838.265 164.955ZM833.756 161.918C832.441 160.449 831.346 158.774 830.473 156.87L821.382 161.036C822.658 163.819 824.297 166.344 826.303 168.586L833.756 161.918ZM830.543 157.03C829.83 155.319 829.463 153.485 829.463 151.482H819.463C819.463 154.753 820.072 157.9 821.312 160.876L830.543 157.03ZM905.176 205.242V200.242H900.176V205.242H905.176ZM953.516 205.242H958.516V200.242H953.516V205.242ZM953.516 222.967H948.516V227.967H953.516V222.967ZM953.809 222.967V227.967H955.651L957.053 226.771L953.809 222.967ZM964.209 215.057L967.008 219.2L967.02 219.191L967.032 219.183L964.209 215.057ZM988.232 204.07L987.045 199.213L987.032 199.216L987.02 199.22L988.232 204.07ZM1030.13 208.611L1027.83 213.05L1027.85 213.061L1027.87 213.072L1030.13 208.611ZM1048.44 227.508L1043.97 229.744L1046.89 235.599L1051.77 231.234L1048.44 227.508ZM1060.16 217.986L1063.13 222.009L1063.16 221.987L1063.19 221.963L1060.16 217.986ZM1072.9 209.93L1070.66 205.458L1070.64 205.467L1070.62 205.478L1072.9 209.93ZM1151.42 233.807L1146.66 235.349L1146.67 235.388L1146.69 235.427L1151.42 233.807ZM1155.08 331.805H1150.08V336.805H1155.08V331.805ZM1176.17 331.805H1181.17V326.805H1176.17V331.805ZM1176.17 357V362H1181.17V357H1176.17ZM1105.27 357H1100.27V362H1105.27V357ZM1105.27 331.805V326.805H1100.27V331.805H1105.27ZM1126.66 331.805V336.805H1131.66V331.805H1126.66ZM1117.87 236.15L1114.28 239.627L1114.29 239.642L1114.31 239.657L1117.87 236.15ZM1054.88 243.621L1051.38 240.05L1049.88 241.52V243.621H1054.88ZM1054.88 331.805H1049.88V336.805H1054.88V331.805ZM1075.83 331.805H1080.83V326.805H1075.83V331.805ZM1075.83 357V362H1080.83V357H1075.83ZM1005.08 357H1000.08V362H1005.08V357ZM1005.08 331.805V326.805H1000.08V331.805H1005.08ZM1026.46 331.805V336.805H1031.46V331.805H1026.46ZM1017.53 236.15L1013.94 239.627L1013.96 239.657L1013.99 239.686L1017.53 236.15ZM954.688 242.889L951.613 238.946L949.688 240.447V242.889H954.688ZM954.688 331.805H949.688V336.805H954.688V331.805ZM976.074 331.805H981.074V326.805H976.074V331.805ZM976.074 357V362H981.074V357H976.074ZM905.176 357H900.176V362H905.176V357ZM905.176 331.805V326.805H900.176V331.805H905.176ZM926.27 331.805V336.805H931.27V331.805H926.27ZM926.27 230.438H931.27V225.438H926.27V230.438ZM905.176 230.438H900.176V235.438H905.176V230.438ZM905.176 210.242H953.516V200.242H905.176V210.242ZM948.516 205.242V222.967H958.516V205.242H948.516ZM953.516 227.967H953.809V217.967H953.516V227.967ZM957.053 226.771C960.232 224.06 963.55 221.536 967.008 219.2L961.41 210.914C957.642 213.46 954.026 216.21 950.564 219.163L957.053 226.771ZM967.032 219.183C970.519 216.798 974.136 214.738 977.884 213.001L973.679 203.928C969.419 205.902 965.321 208.238 961.386 210.93L967.032 219.183ZM977.884 213.001C981.6 211.279 985.453 209.919 989.445 208.921L987.02 199.22C982.418 200.37 977.97 201.94 973.679 203.928L977.884 213.001ZM989.42 208.927C993.412 207.951 997.554 207.459 1001.86 207.459V197.459C996.782 197.459 991.842 198.041 987.045 199.213L989.42 208.927ZM1001.86 207.459C1012.17 207.459 1020.77 209.392 1027.83 213.05L1032.43 204.173C1023.66 199.628 1013.41 197.459 1001.86 197.459V207.459ZM1027.87 213.072C1034.74 216.55 1040.11 222.025 1043.97 229.744L1052.91 225.272C1048.18 215.803 1041.33 208.68 1032.39 204.15L1027.87 213.072ZM1051.77 231.234C1055.36 228.021 1059.15 224.946 1063.13 222.009L1057.19 213.963C1052.96 217.082 1048.93 220.354 1045.1 223.782L1051.77 231.234ZM1063.19 221.963C1067.06 219.011 1071.06 216.486 1075.18 214.382L1070.62 205.478C1065.95 207.865 1061.45 210.712 1057.13 214.009L1063.19 221.963ZM1075.14 214.402C1079.34 212.299 1083.73 210.607 1088.31 209.325L1085.61 199.695C1080.43 201.147 1075.44 203.068 1070.66 205.458L1075.14 214.402ZM1088.31 209.325C1092.74 208.085 1097.36 207.459 1102.2 207.459V197.459C1096.49 197.459 1090.95 198.2 1085.61 199.695L1088.31 209.325ZM1102.2 207.459C1109.95 207.459 1116.76 208.52 1122.69 210.557L1125.94 201.099C1118.79 198.644 1110.85 197.459 1102.2 197.459V207.459ZM1122.69 210.557C1128.56 212.573 1133.46 215.601 1137.48 219.618L1144.55 212.546C1139.39 207.383 1133.15 203.576 1125.94 201.099L1122.69 210.557ZM1137.48 219.618C1141.42 223.561 1144.52 228.746 1146.66 235.349L1156.17 232.264C1153.63 224.414 1149.79 217.783 1144.55 212.546L1137.48 219.618ZM1146.69 235.427C1148.9 241.906 1150.08 249.78 1150.08 259.148H1160.08C1160.08 248.986 1158.81 239.965 1156.15 232.187L1146.69 235.427ZM1150.08 259.148V331.805H1160.08V259.148H1150.08ZM1155.08 336.805H1176.17V326.805H1155.08V336.805ZM1171.17 331.805V357H1181.17V331.805H1171.17ZM1176.17 352H1105.27V362H1176.17V352ZM1110.27 357V331.805H1100.27V357H1110.27ZM1105.27 336.805H1126.66V326.805H1105.27V336.805ZM1131.66 331.805V262.518H1121.66V331.805H1131.66ZM1131.66 262.518C1131.66 250.105 1128.52 239.851 1121.44 232.644L1114.31 239.657C1118.94 244.364 1121.66 251.688 1121.66 262.518H1131.66ZM1121.46 232.673C1114.4 225.37 1104.48 222.068 1092.53 222.068V232.068C1102.65 232.068 1109.63 234.822 1114.28 239.627L1121.46 232.673ZM1092.53 222.068C1085.17 222.068 1077.77 223.829 1070.38 227.208L1074.54 236.303C1080.82 233.432 1086.8 232.068 1092.53 232.068V222.068ZM1070.38 227.208C1063.07 230.55 1056.72 234.821 1051.38 240.05L1058.38 247.192C1062.81 242.851 1068.18 239.211 1074.54 236.303L1070.38 227.208ZM1049.88 243.621V331.805H1059.88V243.621H1049.88ZM1054.88 336.805H1075.83V326.805H1054.88V336.805ZM1070.83 331.805V357H1080.83V331.805H1070.83ZM1075.83 352H1005.08V362H1075.83V352ZM1010.08 357V331.805H1000.08V357H1010.08ZM1005.08 336.805H1026.46V326.805H1005.08V336.805ZM1031.46 331.805V262.518H1021.46V331.805H1031.46ZM1031.46 262.518C1031.46 250.084 1028.27 239.819 1021.06 232.615L1013.99 239.686C1018.7 244.396 1021.46 251.709 1021.46 262.518H1031.46ZM1021.12 232.673C1014.05 225.37 1004.14 222.068 992.188 222.068V232.068C1002.31 232.068 1009.29 234.822 1013.94 239.627L1021.12 232.673ZM992.188 222.068C985.02 222.068 977.901 223.782 970.872 227.084L975.124 236.135C980.985 233.382 986.66 232.068 992.188 232.068V222.068ZM970.872 227.084C964.081 230.273 957.661 234.23 951.613 238.946L957.762 246.832C963.238 242.563 969.024 239 975.124 236.135L970.872 227.084ZM949.688 242.889V331.805H959.688V242.889H949.688ZM954.688 336.805H976.074V326.805H954.688V336.805ZM971.074 331.805V357H981.074V331.805H971.074ZM976.074 352H905.176V362H976.074V352ZM910.176 357V331.805H900.176V357H910.176ZM905.176 336.805H926.27V326.805H905.176V336.805ZM931.27 331.805V230.438H921.27V331.805H931.27ZM926.27 225.438H905.176V235.438H926.27V225.438ZM910.176 230.438V205.242H900.176V230.438H910.176ZM1231.25 284.637V279.637H1226.25V284.637H1231.25ZM1232.13 296.502L1227.19 297.302L1227.21 297.38L1227.22 297.456L1232.13 296.502ZM1234.91 306.609L1230.21 308.318L1230.22 308.331L1230.22 308.344L1234.91 306.609ZM1252.2 328.729L1249.53 332.96L1249.56 332.979L1249.59 332.997L1252.2 328.729ZM1302.29 332.83L1303.69 337.633L1303.71 337.627L1303.73 337.621L1302.29 332.83ZM1325.88 322.43L1330.18 319.887L1327.68 315.643L1323.4 318.088L1325.88 322.43ZM1336.87 341.033L1339.69 345.156L1343.55 342.513L1341.17 338.491L1336.87 341.033ZM1246.92 356.121L1245.09 360.774L1245.1 360.778L1245.11 360.781L1246.92 356.121ZM1224.37 340.887L1220.7 344.287L1220.71 344.301L1220.73 344.315L1224.37 340.887ZM1209.57 315.691L1204.85 317.341L1204.86 317.361L1204.86 317.382L1209.57 315.691ZM1208.84 249.92L1213.61 251.428L1213.61 251.421L1213.61 251.414L1208.84 249.92ZM1222.31 224.725L1218.48 221.514L1218.48 221.519L1222.31 224.725ZM1304.35 206.561L1302.25 211.1L1302.29 211.116L1302.32 211.132L1304.35 206.561ZM1323.1 220.33L1319.25 223.525L1319.28 223.56L1319.31 223.595L1323.1 220.33ZM1334.08 239.812L1329.34 241.394L1329.35 241.422L1329.36 241.45L1334.08 239.812ZM1339.36 262.225L1334.4 262.86L1334.4 262.869L1334.4 262.877L1339.36 262.225ZM1340.23 273.504L1335.24 273.632L1335.24 273.696L1335.24 273.76L1340.23 273.504ZM1340.53 284.637V289.637H1345.53V284.637H1340.53ZM1257.18 226.922L1258.93 231.604L1258.96 231.594L1258.99 231.584L1257.18 226.922ZM1245.17 234.686L1248.7 238.221L1248.73 238.195L1248.75 238.169L1245.17 234.686ZM1237.11 246.99L1232.5 245.054L1232.48 245.094L1232.47 245.133L1237.11 246.99ZM1232.71 263.396L1227.78 262.6L1226.84 268.396H1232.71V263.396ZM1311.38 263.396V268.396H1316.73L1316.37 263.052L1311.38 263.396ZM1308.59 247.723L1303.79 249.096L1303.8 249.141L1303.81 249.186L1308.59 247.723ZM1226.25 284.637C1226.25 289.157 1226.56 293.384 1227.19 297.302L1237.06 295.702C1236.53 292.394 1236.25 288.71 1236.25 284.637H1226.25ZM1227.22 297.456C1227.95 301.217 1228.95 304.839 1230.21 308.318L1239.61 304.901C1238.53 301.934 1237.67 298.818 1237.04 295.548L1227.22 297.456ZM1230.22 308.344C1234.17 319.018 1240.59 327.326 1249.53 332.96L1254.86 324.497C1247.99 320.17 1242.88 313.732 1239.6 304.874L1230.22 308.344ZM1249.59 332.997C1258.44 338.393 1268.39 341.053 1279.3 341.053V331.053C1270.09 331.053 1261.97 328.829 1254.8 324.46L1249.59 332.997ZM1279.3 341.053C1287.67 341.053 1295.8 339.915 1303.69 337.633L1300.9 328.027C1293.95 330.042 1286.75 331.053 1279.3 331.053V341.053ZM1303.73 337.621C1311.68 335.246 1319.89 331.611 1328.36 326.771L1323.4 318.088C1315.46 322.624 1307.95 325.922 1300.86 328.039L1303.73 337.621ZM1321.57 324.972L1332.56 343.576L1341.17 338.491L1330.18 319.887L1321.57 324.972ZM1334.04 336.911C1324.41 343.516 1314.82 348.366 1305.27 351.52L1308.4 361.016C1318.97 357.528 1329.4 352.222 1339.69 345.156L1334.04 336.911ZM1305.27 351.52C1295.73 354.669 1285.81 356.248 1275.49 356.248V366.248C1286.85 366.248 1297.83 364.507 1308.4 361.016L1305.27 351.52ZM1275.49 356.248C1265.8 356.248 1256.9 354.635 1248.74 351.461L1245.11 360.781C1254.53 364.443 1264.67 366.248 1275.49 366.248V356.248ZM1248.75 351.468C1240.74 348.317 1233.84 343.655 1228 337.458L1220.73 344.315C1227.58 351.595 1235.72 357.089 1245.09 360.774L1248.75 351.468ZM1228.03 337.487C1222.31 331.316 1217.7 323.528 1214.28 314.001L1204.86 317.382C1208.67 327.972 1213.92 336.981 1220.7 344.287L1228.03 337.487ZM1214.29 314.042C1211 304.629 1209.3 293.49 1209.3 280.535H1199.3C1199.3 294.338 1201.11 306.636 1204.85 317.341L1214.29 314.042ZM1209.3 280.535C1209.3 270.166 1210.74 260.473 1213.61 251.428L1204.07 248.412C1200.88 258.507 1199.3 269.224 1199.3 280.535H1209.3ZM1213.61 251.414C1216.46 242.316 1220.65 234.512 1226.15 227.931L1218.48 221.519C1212.06 229.195 1207.27 238.188 1204.07 248.426L1213.61 251.414ZM1226.15 227.936C1231.72 221.287 1238.6 216.011 1246.86 212.107L1242.59 203.065C1233.08 207.56 1225.02 213.709 1218.48 221.514L1226.15 227.936ZM1246.86 212.107C1254.96 208.28 1264.56 206.287 1275.78 206.287V196.287C1263.37 196.287 1252.27 198.493 1242.59 203.065L1246.86 212.107ZM1275.78 206.287C1286.73 206.287 1295.48 207.977 1302.25 211.1L1306.44 202.021C1297.97 198.113 1287.68 196.287 1275.78 196.287V206.287ZM1302.32 211.132C1309.42 214.277 1315.02 218.428 1319.25 223.525L1326.94 217.136C1321.61 210.709 1314.7 205.68 1306.37 201.989L1302.32 211.132ZM1319.31 223.595C1323.75 228.749 1327.1 234.667 1329.34 241.394L1338.83 238.231C1336.18 230.309 1332.2 223.239 1326.88 217.065L1319.31 223.595ZM1329.36 241.45C1331.79 248.453 1333.46 255.588 1334.4 262.86L1344.31 261.589C1343.29 253.627 1341.46 245.821 1338.81 238.175L1329.36 241.45ZM1334.4 262.877C1334.86 266.411 1335.14 269.996 1335.24 273.632L1345.23 273.376C1345.13 269.395 1344.82 265.46 1344.31 261.572L1334.4 262.877ZM1335.24 273.76C1335.43 277.488 1335.53 281.113 1335.53 284.637H1345.53C1345.53 280.933 1345.43 277.137 1345.23 273.248L1335.24 273.76ZM1340.53 279.637H1231.25V289.637H1340.53V279.637ZM1273.88 219.139C1267.05 219.139 1260.85 220.135 1255.37 222.26L1258.99 231.584C1263.08 229.998 1268.01 229.139 1273.88 229.139V219.139ZM1255.42 222.24C1250.08 224.244 1245.44 227.227 1241.58 231.202L1248.75 238.169C1251.53 235.308 1254.9 233.116 1258.93 231.604L1255.42 222.24ZM1241.63 231.15C1237.8 234.984 1234.77 239.65 1232.5 245.054L1241.72 248.926C1243.55 244.565 1245.89 241.028 1248.7 238.221L1241.63 231.15ZM1232.47 245.133C1230.36 250.409 1228.8 256.241 1227.78 262.6L1237.65 264.193C1238.58 258.443 1239.96 253.337 1241.75 248.847L1232.47 245.133ZM1232.71 268.396H1311.38V258.396H1232.71V268.396ZM1316.37 263.052C1315.95 257.058 1314.96 251.453 1313.37 246.259L1303.81 249.186C1305.15 253.562 1306.02 258.406 1306.39 263.74L1316.37 263.052ZM1313.4 246.349C1311.86 240.953 1309.4 236.167 1305.99 232.071L1298.31 238.472C1300.75 241.408 1302.59 244.922 1303.79 249.096L1313.4 246.349ZM1305.99 232.071C1302.51 227.892 1298.08 224.703 1292.83 222.468L1288.91 231.669C1292.84 233.34 1295.93 235.62 1298.31 238.472L1305.99 232.071ZM1292.83 222.468C1287.44 220.176 1281.07 219.139 1273.88 219.139V229.139C1280.16 229.139 1285.12 230.054 1288.91 231.669L1292.83 222.468Z" fill="black"/>
<defs>
<clipPath id="clip0_244_10">
<rect width="500" height="500" rx="250" fill="white"/>
</clipPath>
</defs>
</svg>
