<svg width="1364" height="500" viewBox="0 0 1364 500" fill="none" xmlns="http://www.w3.org/2000/svg">
<g clip-path="url(#clip0_244_10)">
<rect width="500" height="500" rx="250" fill="#D4F357"/>
<path d="M574.418 -77C565.82 -24.979 474.882 472.684 -252.093 498.982C132.849 505.192 584 745 584 745L574.418 -77Z" fill="#47CB74"/>
<path d="M-14.4179 530C-5.81958 477.979 85.1183 -19.6844 812.093 -45.9824C427.151 -52.1921 -24 -292 -24 -292L-14.4179 530Z" fill="#47CB74"/>
</g>
<path d="M138.477 129.07H187.695V331.805H210.547V357H138.477V331.805H160.449V154.266H138.477V129.07ZM324.805 245.965C324.805 241.863 323.828 238.396 321.875 235.564C320.02 232.635 317.578 230.291 314.551 228.533C311.523 226.678 308.154 225.359 304.443 224.578C300.732 223.699 297.119 223.26 293.604 223.26C289.697 223.26 286.084 223.699 282.764 224.578C279.541 225.457 276.758 226.727 274.414 228.387C272.07 230.047 270.215 232.098 268.848 234.539C267.578 236.883 266.943 239.52 266.943 242.449C266.943 247.527 268.457 251.58 271.484 254.607C274.609 257.537 279.785 260.271 287.012 262.811L316.162 273.064C328.662 277.264 337.793 282.977 343.555 290.203C349.316 297.43 352.197 306.072 352.197 316.131C352.197 322.869 350.83 329.07 348.096 334.734C345.459 340.301 341.65 345.086 336.67 349.09C331.787 352.996 325.879 356.023 318.945 358.172C312.012 360.418 304.297 361.541 295.801 361.541C283.984 361.541 274.365 359.637 266.943 355.828C259.521 352.02 253.809 346.99 249.805 340.74H234.57V315.545H264.893C264.893 319.744 265.771 323.357 267.529 326.385C269.385 329.314 271.777 331.707 274.707 333.562C277.734 335.418 281.104 336.785 284.814 337.664C288.623 338.543 292.48 338.982 296.387 338.982C300.195 338.982 303.857 338.543 307.373 337.664C310.889 336.688 313.965 335.32 316.602 333.562C319.336 331.707 321.484 329.51 323.047 326.971C324.609 324.432 325.391 321.551 325.391 318.328C325.391 313.445 323.779 309.295 320.557 305.877C317.432 302.459 312.061 299.383 304.443 296.648L275.439 285.809C263.623 281.609 254.834 276.287 249.072 269.842C243.408 263.299 240.576 255.145 240.576 245.379C240.576 238.934 241.748 232.977 244.092 227.508C246.533 222.039 250 217.352 254.492 213.445C259.082 209.441 264.648 206.316 271.191 204.07C277.734 201.824 285.205 200.701 293.604 200.701C304.443 200.701 313.525 202.215 320.85 205.242C328.174 208.27 334.766 213.445 340.625 220.77H354.834V245.965H324.805ZM520.508 331.805H538.965L521.387 281.414H435.986L418.848 331.805H441.699V357H369.629V331.805H388.965L458.105 134.93H501.318L570.312 331.805H592.578V357H520.508V331.805ZM444.336 257.098H512.891L478.32 157.781L444.336 257.098ZM708.594 331.805H729.98V262.518C729.98 250.896 727.002 242.107 721.045 236.15C715.186 230.096 706.738 227.068 695.703 227.068C689.355 227.068 682.959 228.582 676.514 231.609C670.068 234.637 663.965 238.396 658.203 242.889V331.805H679.59V357H608.691V331.805H629.785V230.438H608.691V205.242H657.031V223.113H657.324C660.547 220.281 663.965 217.596 667.578 215.057C671.289 212.518 675.146 210.32 679.15 208.465C683.154 206.609 687.305 205.145 691.602 204.07C695.996 202.996 700.586 202.459 705.371 202.459C713.477 202.459 720.801 203.582 727.344 205.828C733.887 208.074 739.453 211.492 744.043 216.082C748.633 220.672 752.148 226.58 754.59 233.807C757.129 240.936 758.398 249.383 758.398 259.148V331.805H779.492V357H708.594V331.805ZM807.617 205.242H857.129V331.805H879.98V357H807.91V331.805H829.59V230.438H807.617V205.242ZM824.463 151.482C824.463 148.943 824.951 146.551 825.928 144.305C827.002 141.961 828.369 139.959 830.029 138.299C831.787 136.541 833.838 135.174 836.182 134.197C838.525 133.123 841.016 132.586 843.652 132.586C846.191 132.586 848.584 133.123 850.83 134.197C853.174 135.174 855.176 136.541 856.836 138.299C858.594 139.959 859.961 141.961 860.938 144.305C862.012 146.551 862.549 148.943 862.549 151.482C862.549 154.119 862.012 156.609 860.938 158.953C859.961 161.297 858.594 163.396 856.836 165.252C855.176 167.01 853.174 168.426 850.83 169.5C848.584 170.477 846.191 170.965 843.652 170.965C841.016 170.965 838.525 170.477 836.182 169.5C833.838 168.426 831.787 167.01 830.029 165.252C828.369 163.396 827.002 161.297 825.928 158.953C824.951 156.609 824.463 154.119 824.463 151.482ZM905.176 205.242H953.516V222.967H953.809C957.129 220.135 960.596 217.498 964.209 215.057C967.92 212.518 971.777 210.32 975.781 208.465C979.785 206.609 983.936 205.145 988.232 204.07C992.627 202.996 997.168 202.459 1001.86 202.459C1012.79 202.459 1022.22 204.51 1030.13 208.611C1038.04 212.615 1044.14 218.914 1048.44 227.508C1052.15 224.188 1056.05 221.014 1060.16 217.986C1064.26 214.861 1068.51 212.176 1072.9 209.93C1077.39 207.684 1082.08 205.877 1086.96 204.51C1091.85 203.143 1096.92 202.459 1102.2 202.459C1110.4 202.459 1117.77 203.582 1124.32 205.828C1130.86 208.074 1136.43 211.492 1141.02 216.082C1145.61 220.672 1149.07 226.58 1151.42 233.807C1153.86 240.936 1155.08 249.383 1155.08 259.148V331.805H1176.17V357H1105.27V331.805H1126.66V262.518C1126.66 250.896 1123.73 242.107 1117.87 236.15C1112.01 230.096 1103.56 227.068 1092.53 227.068C1085.99 227.068 1079.3 228.631 1072.46 231.756C1065.62 234.881 1059.77 238.836 1054.88 243.621V331.805H1075.83V357H1005.08V331.805H1026.46V262.518C1026.46 250.896 1023.49 242.107 1017.53 236.15C1011.67 230.096 1003.22 227.068 992.188 227.068C985.84 227.068 979.443 228.582 972.998 231.609C966.553 234.637 960.449 238.396 954.688 242.889V331.805H976.074V357H905.176V331.805H926.27V230.438H905.176V205.242ZM1231.25 284.637C1231.25 288.934 1231.54 292.889 1232.13 296.502C1232.81 300.018 1233.74 303.387 1234.91 306.609C1238.53 316.375 1244.29 323.748 1252.2 328.729C1260.21 333.611 1269.24 336.053 1279.3 336.053C1287.21 336.053 1294.87 334.979 1302.29 332.83C1309.81 330.584 1317.68 327.117 1325.88 322.43L1336.87 341.033C1326.9 347.869 1316.89 352.947 1306.84 356.268C1296.78 359.588 1286.33 361.248 1275.49 361.248C1265.23 361.248 1255.71 359.539 1246.92 356.121C1238.23 352.703 1230.71 347.625 1224.37 340.887C1218.12 334.148 1213.18 325.75 1209.57 315.691C1206.05 305.633 1204.3 293.914 1204.3 280.535C1204.3 269.695 1205.81 259.49 1208.84 249.92C1211.87 240.252 1216.36 231.854 1222.31 224.725C1228.37 217.498 1235.84 211.785 1244.73 207.586C1253.61 203.387 1263.96 201.287 1275.78 201.287C1287.21 201.287 1296.73 203.045 1304.35 206.561C1312.06 209.979 1318.31 214.568 1323.1 220.33C1327.98 225.994 1331.64 232.488 1334.08 239.812C1336.62 247.137 1338.38 254.607 1339.36 262.225C1339.84 265.936 1340.14 269.695 1340.23 273.504C1340.43 277.312 1340.53 281.023 1340.53 284.637H1231.25ZM1273.88 224.139C1267.53 224.139 1261.96 225.066 1257.18 226.922C1252.49 228.68 1248.49 231.268 1245.17 234.686C1241.85 238.006 1239.16 242.107 1237.11 246.99C1235.16 251.873 1233.69 257.342 1232.71 263.396H1311.38C1310.99 257.732 1310.06 252.508 1308.59 247.723C1307.23 242.938 1305.08 238.787 1302.15 235.271C1299.22 231.756 1295.46 229.021 1290.87 227.068C1286.28 225.115 1280.62 224.139 1273.88 224.139Z" fill="#79118A"/>
<path d="M138.477 129.07V127.07H136.477V129.07H138.477ZM187.695 129.07H189.695V127.07H187.695V129.07ZM187.695 331.805H185.695V333.805H187.695V331.805ZM210.547 331.805H212.547V329.805H210.547V331.805ZM210.547 357V359H212.547V357H210.547ZM138.477 357H136.477V359H138.477V357ZM138.477 331.805V329.805H136.477V331.805H138.477ZM160.449 331.805V333.805H162.449V331.805H160.449ZM160.449 154.266H162.449V152.266H160.449V154.266ZM138.477 154.266H136.477V156.266H138.477V154.266ZM138.477 131.07H187.695V127.07H138.477V131.07ZM185.695 129.07V331.805H189.695V129.07H185.695ZM187.695 333.805H210.547V329.805H187.695V333.805ZM208.547 331.805V357H212.547V331.805H208.547ZM210.547 355H138.477V359H210.547V355ZM140.477 357V331.805H136.477V357H140.477ZM138.477 333.805H160.449V329.805H138.477V333.805ZM162.449 331.805V154.266H158.449V331.805H162.449ZM160.449 152.266H138.477V156.266H160.449V152.266ZM140.477 154.266V129.07H136.477V154.266H140.477ZM324.805 245.965H322.805V247.965H324.805V245.965ZM321.875 235.564L320.185 236.635L320.206 236.668L320.229 236.7L321.875 235.564ZM314.551 228.533L313.506 230.238L313.526 230.251L313.547 230.263L314.551 228.533ZM304.443 224.578L303.982 226.524L304.007 226.53L304.031 226.535L304.443 224.578ZM282.764 224.578L282.252 222.645L282.245 222.647L282.237 222.649L282.764 224.578ZM268.848 234.539L267.103 233.562L267.096 233.574L267.089 233.586L268.848 234.539ZM271.484 254.607L270.07 256.022L270.093 256.044L270.116 256.066L271.484 254.607ZM287.012 262.811L287.675 260.924L287.675 260.924L287.012 262.811ZM316.162 273.064L315.498 274.951L315.512 274.956L315.525 274.96L316.162 273.064ZM348.096 334.734L346.295 333.865L346.291 333.872L346.288 333.878L348.096 334.734ZM336.67 349.09L337.919 350.652L337.923 350.649L336.67 349.09ZM318.945 358.172L318.353 356.261L318.341 356.265L318.329 356.269L318.945 358.172ZM249.805 340.74L251.489 339.661L250.899 338.74H249.805V340.74ZM234.57 340.74H232.57V342.74H234.57V340.74ZM234.57 315.545V313.545H232.57V315.545H234.57ZM264.893 315.545H266.893V313.545H264.893V315.545ZM267.529 326.385L265.8 327.389L265.819 327.422L265.84 327.455L267.529 326.385ZM274.707 333.562L273.637 335.252L273.649 335.26L273.662 335.268L274.707 333.562ZM284.814 337.664L284.354 339.61L284.365 339.613L284.814 337.664ZM307.373 337.664L307.858 339.604L307.883 339.598L307.908 339.591L307.373 337.664ZM316.602 333.562L317.711 335.227L317.718 335.222L317.725 335.217L316.602 333.562ZM320.557 305.877L319.081 307.226L319.091 307.238L319.101 307.249L320.557 305.877ZM304.443 296.648L303.743 298.522L303.755 298.526L303.768 298.531L304.443 296.648ZM275.439 285.809L276.14 283.935L276.124 283.929L276.109 283.924L275.439 285.809ZM249.072 269.842L247.56 271.151L247.571 271.163L247.581 271.175L249.072 269.842ZM244.092 227.508L242.266 226.693L242.259 226.706L242.254 226.72L244.092 227.508ZM254.492 213.445L255.805 214.955L255.807 214.952L254.492 213.445ZM340.625 220.77L339.063 222.019L339.664 222.77H340.625V220.77ZM354.834 220.77H356.834V218.77H354.834V220.77ZM354.834 245.965V247.965H356.834V245.965H354.834ZM326.805 245.965C326.805 241.537 325.746 237.655 323.521 234.429L320.229 236.7C321.91 239.138 322.805 242.189 322.805 245.965H326.805ZM323.565 234.494C321.535 231.29 318.858 228.721 315.555 226.804L313.547 230.263C316.298 231.861 318.504 233.979 320.185 236.635L323.565 234.494ZM315.596 226.828C312.361 224.845 308.775 223.446 304.855 222.621L304.031 226.535C307.534 227.273 310.686 228.51 313.506 230.238L315.596 226.828ZM304.904 222.632C301.055 221.72 297.287 221.26 293.604 221.26V225.26C296.951 225.26 300.41 225.678 303.982 226.524L304.904 222.632ZM293.604 221.26C289.548 221.26 285.76 221.716 282.252 222.645L283.275 226.512C286.408 225.682 289.847 225.26 293.604 225.26V221.26ZM282.237 222.649C278.825 223.579 275.821 224.939 273.258 226.755L275.57 230.019C277.695 228.514 280.257 227.335 283.29 226.508L282.237 222.649ZM273.258 226.755C270.678 228.582 268.619 230.854 267.103 233.562L270.593 235.516C271.811 233.341 273.462 231.512 275.57 230.019L273.258 226.755ZM267.089 233.586C265.646 236.251 264.943 239.221 264.943 242.449H268.943C268.943 239.818 269.51 237.515 270.606 235.492L267.089 233.586ZM264.943 242.449C264.943 247.952 266.599 252.55 270.07 256.022L272.899 253.193C270.315 250.61 268.943 247.103 268.943 242.449H264.943ZM270.116 256.066C273.546 259.281 279.034 262.128 286.349 264.697L287.675 260.924C280.536 258.415 275.673 255.793 272.852 253.148L270.116 256.066ZM286.348 264.697L315.498 274.951L316.826 271.178L287.675 260.924L286.348 264.697ZM315.525 274.96C327.809 279.087 336.551 284.627 341.991 291.45L345.118 288.956C339.035 281.326 329.516 275.441 316.799 271.169L315.525 274.96ZM341.991 291.45C347.445 298.29 350.197 306.483 350.197 316.131H354.197C354.197 305.662 351.188 296.569 345.118 288.956L341.991 291.45ZM350.197 316.131C350.197 322.59 348.889 328.491 346.295 333.865L349.897 335.604C352.771 329.65 354.197 323.148 354.197 316.131H350.197ZM346.288 333.878C343.786 339.161 340.171 343.709 335.417 347.531L337.923 350.649C343.13 346.463 347.132 341.44 349.903 335.591L346.288 333.878ZM335.421 347.528C330.762 351.255 325.086 354.175 318.353 356.261L319.537 360.082C326.672 357.872 332.812 354.737 337.919 350.652L335.421 347.528ZM318.329 356.269C311.624 358.441 304.121 359.541 295.801 359.541V363.541C304.472 363.541 312.399 362.395 319.562 360.075L318.329 356.269ZM295.801 359.541C284.178 359.541 274.903 357.665 267.856 354.049L266.03 357.608C273.827 361.609 283.791 363.541 295.801 363.541V359.541ZM267.856 354.049C260.709 350.381 255.279 345.578 251.489 339.661L248.121 341.819C252.338 348.402 258.334 353.658 266.03 357.608L267.856 354.049ZM249.805 338.74H234.57V342.74H249.805V338.74ZM236.57 340.74V315.545H232.57V340.74H236.57ZM234.57 317.545H264.893V313.545H234.57V317.545ZM262.893 315.545C262.893 320.026 263.832 324.001 265.8 327.389L269.259 325.38C267.711 322.714 266.893 319.462 266.893 315.545H262.893ZM265.84 327.455C267.853 330.634 270.457 333.238 273.637 335.252L275.777 331.873C273.097 330.176 270.916 327.995 269.219 325.315L265.84 327.455ZM273.662 335.268C276.883 337.242 280.452 338.686 284.354 339.61L285.275 335.718C281.755 334.884 278.586 333.594 275.752 331.857L273.662 335.268ZM284.365 339.613C288.321 340.526 292.329 340.982 296.387 340.982V336.982C292.632 336.982 288.925 336.56 285.264 335.715L284.365 339.613ZM296.387 340.982C300.351 340.982 304.176 340.525 307.858 339.604L306.888 335.724C303.539 336.561 300.04 336.982 296.387 336.982V340.982ZM307.908 339.591C311.598 338.566 314.874 337.118 317.711 335.227L315.492 331.898C313.056 333.522 310.18 334.809 306.838 335.737L307.908 339.591ZM317.725 335.217C320.668 333.22 323.024 330.824 324.75 328.019L321.344 325.923C319.945 328.196 318.004 330.194 315.479 331.908L317.725 335.217ZM324.75 328.019C326.522 325.139 327.391 321.89 327.391 318.328H323.391C323.391 321.212 322.696 323.724 321.344 325.923L324.75 328.019ZM327.391 318.328C327.391 312.957 325.599 308.31 322.012 304.505L319.101 307.249C321.959 310.28 323.391 313.933 323.391 318.328H327.391ZM322.033 304.527C318.581 300.752 312.845 297.539 305.119 294.766L303.768 298.531C311.276 301.226 316.283 304.166 319.081 307.226L322.033 304.527ZM305.144 294.775L276.14 283.935L274.739 287.682L303.743 298.522L305.144 294.775ZM276.109 283.924C264.476 279.79 256.024 274.617 250.563 268.509L247.581 271.175C253.644 277.957 262.77 283.429 274.77 287.693L276.109 283.924ZM250.584 268.533C245.276 262.4 242.576 254.73 242.576 245.379H238.576C238.576 255.559 241.541 264.197 247.56 271.151L250.584 268.533ZM242.576 245.379C242.576 239.182 243.702 233.495 245.93 228.296L242.254 226.72C239.794 232.458 238.576 238.686 238.576 245.379H242.576ZM245.918 228.323C248.241 223.119 251.534 218.668 255.805 214.955L253.18 211.936C248.466 216.035 244.825 220.959 242.266 226.693L245.918 228.323ZM255.807 214.952C260.177 211.14 265.509 208.135 271.841 205.962L270.542 202.179C263.788 204.497 257.987 207.743 253.177 211.938L255.807 214.952ZM271.841 205.962C278.136 203.801 285.38 202.701 293.604 202.701V198.701C285.03 198.701 277.333 199.847 270.542 202.179L271.841 205.962ZM293.604 202.701C304.272 202.701 313.075 204.193 320.086 207.091L321.614 203.394C313.976 200.237 304.615 198.701 293.604 198.701V202.701ZM320.086 207.091C327.045 209.967 333.376 214.91 339.063 222.019L342.187 219.52C336.155 211.981 329.303 206.572 321.614 203.394L320.086 207.091ZM340.625 222.77H354.834V218.77H340.625V222.77ZM352.834 220.77V245.965H356.834V220.77H352.834ZM354.834 243.965H324.805V247.965H354.834V243.965ZM520.508 331.805V329.805H518.508V331.805H520.508ZM538.965 331.805V333.805H541.781L540.853 331.146L538.965 331.805ZM521.387 281.414L523.275 280.755L522.807 279.414H521.387V281.414ZM435.986 281.414V279.414H434.554L434.093 280.77L435.986 281.414ZM418.848 331.805L416.954 331.161L416.055 333.805H418.848V331.805ZM441.699 331.805H443.699V329.805H441.699V331.805ZM441.699 357V359H443.699V357H441.699ZM369.629 357H367.629V359H369.629V357ZM369.629 331.805V329.805H367.629V331.805H369.629ZM388.965 331.805V333.805H390.382L390.852 332.467L388.965 331.805ZM458.105 134.93V132.93H456.688L456.218 134.267L458.105 134.93ZM501.318 134.93L503.206 134.268L502.737 132.93H501.318V134.93ZM570.312 331.805L568.425 332.466L568.894 333.805H570.312V331.805ZM592.578 331.805H594.578V329.805H592.578V331.805ZM592.578 357V359H594.578V357H592.578ZM520.508 357H518.508V359H520.508V357ZM444.336 257.098L442.444 256.45L441.538 259.098H444.336V257.098ZM512.891 257.098V259.098H515.704L514.779 256.44L512.891 257.098ZM478.32 157.781L480.209 157.124L478.304 151.651L476.428 157.134L478.32 157.781ZM520.508 333.805H538.965V329.805H520.508V333.805ZM540.853 331.146L523.275 280.755L519.498 282.073L537.076 332.463L540.853 331.146ZM521.387 279.414H435.986V283.414H521.387V279.414ZM434.093 280.77L416.954 331.161L420.741 332.449L437.88 282.058L434.093 280.77ZM418.848 333.805H441.699V329.805H418.848V333.805ZM439.699 331.805V357H443.699V331.805H439.699ZM441.699 355H369.629V359H441.699V355ZM371.629 357V331.805H367.629V357H371.629ZM369.629 333.805H388.965V329.805H369.629V333.805ZM390.852 332.467L459.992 135.592L456.218 134.267L387.078 331.142L390.852 332.467ZM458.105 136.93H501.318V132.93H458.105V136.93ZM499.431 135.591L568.425 332.466L572.2 331.143L503.206 134.268L499.431 135.591ZM570.312 333.805H592.578V329.805H570.312V333.805ZM590.578 331.805V357H594.578V331.805H590.578ZM592.578 355H520.508V359H592.578V355ZM522.508 357V331.805H518.508V357H522.508ZM444.336 259.098H512.891V255.098H444.336V259.098ZM514.779 256.44L480.209 157.124L476.431 158.439L511.002 257.755L514.779 256.44ZM476.428 157.134L442.444 256.45L446.228 257.745L480.213 158.429L476.428 157.134ZM708.594 331.805V329.805H706.594V331.805H708.594ZM729.98 331.805V333.805H731.98V331.805H729.98ZM721.045 236.15L719.608 237.541L719.619 237.553L719.631 237.565L721.045 236.15ZM658.203 242.889L656.973 241.311L656.203 241.912V242.889H658.203ZM658.203 331.805H656.203V333.805H658.203V331.805ZM679.59 331.805H681.59V329.805H679.59V331.805ZM679.59 357V359H681.59V357H679.59ZM608.691 357H606.691V359H608.691V357ZM608.691 331.805V329.805H606.691V331.805H608.691ZM629.785 331.805V333.805H631.785V331.805H629.785ZM629.785 230.438H631.785V228.438H629.785V230.438ZM608.691 230.438H606.691V232.438H608.691V230.438ZM608.691 205.242V203.242H606.691V205.242H608.691ZM657.031 205.242H659.031V203.242H657.031V205.242ZM657.031 223.113H655.031V225.113H657.031V223.113ZM657.324 223.113V225.113H658.078L658.644 224.616L657.324 223.113ZM667.578 215.057L666.449 213.406L666.438 213.413L666.428 213.42L667.578 215.057ZM691.602 204.07L691.127 202.127L691.116 202.13L691.602 204.07ZM754.59 233.807L752.695 234.447L752.7 234.462L752.706 234.478L754.59 233.807ZM758.398 331.805H756.398V333.805H758.398V331.805ZM779.492 331.805H781.492V329.805H779.492V331.805ZM779.492 357V359H781.492V357H779.492ZM708.594 357H706.594V359H708.594V357ZM708.594 333.805H729.98V329.805H708.594V333.805ZM731.98 331.805V262.518H727.98V331.805H731.98ZM731.98 262.518C731.98 250.571 728.915 241.192 722.459 234.736L719.631 237.565C725.089 243.023 727.98 251.222 727.98 262.518H731.98ZM722.482 234.76C716.139 228.205 707.105 225.068 695.703 225.068V229.068C706.372 229.068 714.232 231.986 719.608 237.541L722.482 234.76ZM695.703 225.068C689.028 225.068 682.342 226.662 675.663 229.799L677.364 233.42C683.576 230.502 689.683 229.068 695.703 229.068V225.068ZM675.663 229.799C669.08 232.891 662.849 236.73 656.973 241.311L659.433 244.466C665.08 240.063 671.057 236.382 677.364 233.42L675.663 229.799ZM656.203 242.889V331.805H660.203V242.889H656.203ZM658.203 333.805H679.59V329.805H658.203V333.805ZM677.59 331.805V357H681.59V331.805H677.59ZM679.59 355H608.691V359H679.59V355ZM610.691 357V331.805H606.691V357H610.691ZM608.691 333.805H629.785V329.805H608.691V333.805ZM631.785 331.805V230.438H627.785V331.805H631.785ZM629.785 228.438H608.691V232.438H629.785V228.438ZM610.691 230.438V205.242H606.691V230.438H610.691ZM608.691 207.242H657.031V203.242H608.691V207.242ZM655.031 205.242V223.113H659.031V205.242H655.031ZM657.031 225.113H657.324V221.113H657.031V225.113ZM658.644 224.616C661.811 221.833 665.172 219.192 668.728 216.693L666.428 213.42C662.758 216 659.283 218.73 656.004 221.611L658.644 224.616ZM668.707 216.707C672.329 214.23 676.09 212.087 679.991 210.279L678.309 206.65C674.203 208.553 670.249 210.806 666.449 213.406L668.707 216.707ZM679.991 210.279C683.88 208.477 687.912 207.054 692.087 206.011L691.116 202.13C686.698 203.235 682.428 204.742 678.309 206.65L679.991 210.279ZM692.076 206.013C696.307 204.979 700.737 204.459 705.371 204.459V200.459C700.435 200.459 695.685 201.013 691.127 202.128L692.076 206.013ZM705.371 204.459C713.293 204.459 720.393 205.557 726.694 207.72L727.993 203.936C721.209 201.608 713.66 200.459 705.371 200.459V204.459ZM726.694 207.72C732.969 209.874 738.268 213.136 742.629 217.496L745.457 214.668C740.638 209.849 734.805 206.275 727.993 203.936L726.694 207.72ZM742.629 217.496C746.966 221.833 750.335 227.461 752.695 234.447L756.485 233.167C753.962 225.699 750.3 219.51 745.457 214.668L742.629 217.496ZM752.706 234.478C755.149 241.339 756.398 249.548 756.398 259.148H760.398C760.398 249.217 759.108 240.532 756.474 233.136L752.706 234.478ZM756.398 259.148V331.805H760.398V259.148H756.398ZM758.398 333.805H779.492V329.805H758.398V333.805ZM777.492 331.805V357H781.492V331.805H777.492ZM779.492 355H708.594V359H779.492V355ZM710.594 357V331.805H706.594V357H710.594ZM807.617 205.242V203.242H805.617V205.242H807.617ZM857.129 205.242H859.129V203.242H857.129V205.242ZM857.129 331.805H855.129V333.805H857.129V331.805ZM879.98 331.805H881.98V329.805H879.98V331.805ZM879.98 357V359H881.98V357H879.98ZM807.91 357H805.91V359H807.91V357ZM807.91 331.805V329.805H805.91V331.805H807.91ZM829.59 331.805V333.805H831.59V331.805H829.59ZM829.59 230.438H831.59V228.438H829.59V230.438ZM807.617 230.438H805.617V232.438H807.617V230.438ZM825.928 144.305L824.11 143.471L824.101 143.489L824.094 143.507L825.928 144.305ZM836.182 134.197L836.951 136.043L836.983 136.03L837.015 136.015L836.182 134.197ZM850.83 134.197L849.967 136.002L850.013 136.024L850.061 136.043L850.83 134.197ZM856.836 138.299L855.382 139.672L855.421 139.714L855.463 139.753L856.836 138.299ZM860.938 144.305L859.091 145.074L859.111 145.121L859.133 145.168L860.938 144.305ZM860.938 158.953L859.119 158.12L859.105 158.152L859.091 158.184L860.938 158.953ZM856.836 165.252L855.384 163.876L855.382 163.879L856.836 165.252ZM850.83 169.5L851.628 171.334L851.646 171.326L851.663 171.318L850.83 169.5ZM836.182 169.5L835.348 171.318L835.38 171.333L835.412 171.346L836.182 169.5ZM830.029 165.252L828.539 166.586L828.576 166.627L828.615 166.666L830.029 165.252ZM825.928 158.953L824.082 159.722L824.095 159.755L824.11 159.786L825.928 158.953ZM807.617 207.242H857.129V203.242H807.617V207.242ZM855.129 205.242V331.805H859.129V205.242H855.129ZM857.129 333.805H879.98V329.805H857.129V333.805ZM877.98 331.805V357H881.98V331.805H877.98ZM879.98 355H807.91V359H879.98V355ZM809.91 357V331.805H805.91V357H809.91ZM807.91 333.805H829.59V329.805H807.91V333.805ZM831.59 331.805V230.438H827.59V331.805H831.59ZM829.59 228.438H807.617V232.438H829.59V228.438ZM809.617 230.438V205.242H805.617V230.438H809.617ZM826.463 151.482C826.463 149.207 826.899 147.087 827.762 145.102L824.094 143.507C823.004 146.014 822.463 148.679 822.463 151.482H826.463ZM827.746 145.138C828.731 142.989 829.967 141.189 831.444 139.713L828.615 136.885C826.771 138.729 825.273 140.933 824.11 143.471L827.746 145.138ZM831.444 139.713C833.013 138.144 834.843 136.922 836.951 136.043L835.412 132.351C832.833 133.426 830.562 134.938 828.615 136.885L831.444 139.713ZM837.015 136.015C839.091 135.064 841.297 134.586 843.652 134.586V130.586C840.735 130.586 837.96 131.182 835.348 132.379L837.015 136.015ZM843.652 134.586C845.899 134.586 847.996 135.059 849.967 136.002L851.693 132.393C849.172 131.187 846.484 130.586 843.652 130.586V134.586ZM850.061 136.043C852.159 136.918 853.924 138.128 855.382 139.672L858.29 136.926C856.428 134.954 854.189 133.43 851.599 132.351L850.061 136.043ZM855.463 139.753C857.006 141.211 858.217 142.976 859.091 145.074L862.784 143.535C861.705 140.946 860.181 138.707 858.209 136.845L855.463 139.753ZM859.133 145.168C860.076 147.139 860.549 149.236 860.549 151.482H864.549C864.549 148.651 863.947 145.963 862.742 143.442L859.133 145.168ZM860.549 151.482C860.549 153.838 860.071 156.044 859.119 158.12L862.756 159.786C863.952 157.175 864.549 154.4 864.549 151.482H860.549ZM859.091 158.184C858.209 160.302 856.976 162.196 855.384 163.876L858.288 166.627C860.212 164.597 861.713 162.292 862.784 159.722L859.091 158.184ZM855.382 163.879C853.91 165.438 852.123 166.708 849.997 167.682L851.663 171.318C854.225 170.144 856.442 168.582 858.29 166.625L855.382 163.879ZM850.033 167.666C848.047 168.529 845.927 168.965 843.652 168.965V172.965C846.455 172.965 849.121 172.424 851.628 171.334L850.033 167.666ZM843.652 168.965C841.269 168.965 839.041 168.525 836.951 167.654L835.412 171.346C838.009 172.428 840.762 172.965 843.652 172.965V168.965ZM837.015 167.682C834.879 166.703 833.027 165.421 831.444 163.838L828.615 166.666C830.547 168.598 832.797 170.149 835.348 171.318L837.015 167.682ZM831.52 163.918C829.998 162.218 828.74 160.288 827.746 158.12L824.11 159.786C825.264 162.306 826.74 164.575 828.539 166.586L831.52 163.918ZM827.774 158.184C826.903 156.093 826.463 153.865 826.463 151.482H822.463C822.463 154.373 823 157.125 824.082 159.722L827.774 158.184ZM905.176 205.242V203.242H903.176V205.242H905.176ZM953.516 205.242H955.516V203.242H953.516V205.242ZM953.516 222.967H951.516V224.967H953.516V222.967ZM953.809 222.967V224.967H954.546L955.106 224.488L953.809 222.967ZM964.209 215.057L965.329 216.714L965.338 216.707L964.209 215.057ZM988.232 204.07L987.758 202.127L987.747 202.13L988.232 204.07ZM1030.13 208.611L1029.21 210.387L1029.21 210.391L1029.22 210.396L1030.13 208.611ZM1048.44 227.508L1046.65 228.402L1047.82 230.744L1049.77 228.998L1048.44 227.508ZM1060.16 217.986L1061.34 219.595L1061.36 219.586L1061.37 219.577L1060.16 217.986ZM1072.9 209.93L1072.01 208.141L1072 208.145L1071.99 208.149L1072.9 209.93ZM1151.42 233.807L1149.51 234.424L1149.52 234.439L1149.52 234.455L1151.42 233.807ZM1155.08 331.805H1153.08V333.805H1155.08V331.805ZM1176.17 331.805H1178.17V329.805H1176.17V331.805ZM1176.17 357V359H1178.17V357H1176.17ZM1105.27 357H1103.27V359H1105.27V357ZM1105.27 331.805V329.805H1103.27V331.805H1105.27ZM1126.66 331.805V333.805H1128.66V331.805H1126.66ZM1117.87 236.15L1116.43 237.541L1116.44 237.547L1116.45 237.553L1117.87 236.15ZM1054.88 243.621L1053.48 242.193L1052.88 242.781V243.621H1054.88ZM1054.88 331.805H1052.88V333.805H1054.88V331.805ZM1075.83 331.805H1077.83V329.805H1075.83V331.805ZM1075.83 357V359H1077.83V357H1075.83ZM1005.08 357H1003.08V359H1005.08V357ZM1005.08 331.805V329.805H1003.08V331.805H1005.08ZM1026.46 331.805V333.805H1028.46V331.805H1026.46ZM1017.53 236.15L1016.09 237.541L1016.1 237.553L1016.12 237.565L1017.53 236.15ZM954.688 242.889L953.458 241.311L952.688 241.912V242.889H954.688ZM954.688 331.805H952.688V333.805H954.688V331.805ZM976.074 331.805H978.074V329.805H976.074V331.805ZM976.074 357V359H978.074V357H976.074ZM905.176 357H903.176V359H905.176V357ZM905.176 331.805V329.805H903.176V331.805H905.176ZM926.27 331.805V333.805H928.27V331.805H926.27ZM926.27 230.438H928.27V228.438H926.27V230.438ZM905.176 230.438H903.176V232.438H905.176V230.438ZM905.176 207.242H953.516V203.242H905.176V207.242ZM951.516 205.242V222.967H955.516V205.242H951.516ZM953.516 224.967H953.809V220.967H953.516V224.967ZM955.106 224.488C958.37 221.705 961.777 219.113 965.329 216.714L963.089 213.399C959.414 215.883 955.888 218.565 952.511 221.445L955.106 224.488ZM965.338 216.707C968.96 214.23 972.721 212.087 976.622 210.279L974.94 206.65C970.834 208.553 966.88 210.806 963.08 213.406L965.338 216.707ZM976.622 210.279C980.511 208.477 984.542 207.054 988.717 206.011L987.747 202.13C983.329 203.235 979.059 204.742 974.94 206.65L976.622 210.279ZM988.707 206.013C992.941 204.978 997.322 204.459 1001.86 204.459V200.459C997.014 200.459 992.313 201.014 987.758 202.128L988.707 206.013ZM1001.86 204.459C1012.54 204.459 1021.64 206.463 1029.21 210.387L1031.05 206.836C1022.8 202.557 1013.04 200.459 1001.86 200.459V204.459ZM1029.22 210.396C1036.72 214.189 1042.53 220.158 1046.65 228.402L1050.23 226.613C1045.75 217.67 1039.36 211.041 1031.03 206.827L1029.22 210.396ZM1049.77 228.998C1053.43 225.721 1057.29 222.586 1061.34 219.595L1058.97 216.377C1054.82 219.441 1050.86 222.654 1047.1 226.017L1049.77 228.998ZM1061.37 219.577C1065.38 216.521 1069.53 213.9 1073.81 211.711L1071.99 208.149C1067.48 210.451 1063.14 213.201 1058.94 216.395L1061.37 219.577ZM1073.79 211.719C1078.17 209.53 1082.74 207.769 1087.5 206.436L1086.42 202.584C1081.42 203.985 1076.61 205.837 1072.01 208.141L1073.79 211.719ZM1087.5 206.436C1092.2 205.12 1097.1 204.459 1102.2 204.459V200.459C1096.75 200.459 1091.49 201.166 1086.42 202.584L1087.5 206.436ZM1102.2 204.459C1110.22 204.459 1117.37 205.557 1123.67 207.72L1124.97 203.936C1118.18 201.607 1110.58 200.459 1102.2 200.459V204.459ZM1123.67 207.72C1129.94 209.874 1135.24 213.136 1139.6 217.496L1142.43 214.668C1137.61 209.849 1131.78 206.275 1124.97 203.936L1123.67 207.72ZM1139.6 217.496C1143.93 221.827 1147.25 227.447 1149.51 234.424L1153.32 233.19C1150.89 225.714 1147.28 219.516 1142.43 214.668L1139.6 217.496ZM1149.52 234.455C1151.88 241.324 1153.08 249.542 1153.08 259.148H1157.08C1157.08 249.224 1155.84 240.547 1153.31 233.159L1149.52 234.455ZM1153.08 259.148V331.805H1157.08V259.148H1153.08ZM1155.08 333.805H1176.17V329.805H1155.08V333.805ZM1174.17 331.805V357H1178.17V331.805H1174.17ZM1176.17 355H1105.27V359H1176.17V355ZM1107.27 357V331.805H1103.27V357H1107.27ZM1105.27 333.805H1126.66V329.805H1105.27V333.805ZM1128.66 331.805V262.518H1124.66V331.805H1128.66ZM1128.66 262.518C1128.66 250.58 1125.65 241.205 1119.3 234.748L1116.45 237.553C1121.81 243.01 1124.66 251.213 1124.66 262.518H1128.66ZM1119.31 234.76C1112.97 228.205 1103.93 225.068 1092.53 225.068V229.068C1103.2 229.068 1111.06 231.986 1116.43 237.541L1119.31 234.76ZM1092.53 225.068C1085.66 225.068 1078.69 226.71 1071.63 229.937L1073.29 233.575C1079.91 230.551 1086.31 229.068 1092.53 229.068V225.068ZM1071.63 229.937C1064.6 233.149 1058.55 237.23 1053.48 242.193L1056.28 245.05C1060.98 240.442 1066.65 236.613 1073.29 233.575L1071.63 229.937ZM1052.88 243.621V331.805H1056.88V243.621H1052.88ZM1054.88 333.805H1075.83V329.805H1054.88V333.805ZM1073.83 331.805V357H1077.83V331.805H1073.83ZM1075.83 355H1005.08V359H1075.83V355ZM1007.08 357V331.805H1003.08V357H1007.08ZM1005.08 333.805H1026.46V329.805H1005.08V333.805ZM1028.46 331.805V262.518H1024.46V331.805H1028.46ZM1028.46 262.518C1028.46 250.571 1025.4 241.192 1018.94 234.736L1016.12 237.565C1021.57 243.023 1024.46 251.222 1024.46 262.518H1028.46ZM1018.97 234.76C1012.62 228.205 1003.59 225.068 992.188 225.068V229.068C1002.86 229.068 1010.72 231.986 1016.09 237.541L1018.97 234.76ZM992.188 225.068C985.512 225.068 978.827 226.662 972.148 229.799L973.848 233.42C980.06 230.502 986.168 229.068 992.188 229.068V225.068ZM972.148 229.799C965.564 232.891 959.334 236.73 953.458 241.311L955.917 244.466C961.565 240.063 967.541 236.382 973.848 233.42L972.148 229.799ZM952.688 242.889V331.805H956.688V242.889H952.688ZM954.688 333.805H976.074V329.805H954.688V333.805ZM974.074 331.805V357H978.074V331.805H974.074ZM976.074 355H905.176V359H976.074V355ZM907.176 357V331.805H903.176V357H907.176ZM905.176 333.805H926.27V329.805H905.176V333.805ZM928.27 331.805V230.438H924.27V331.805H928.27ZM926.27 228.438H905.176V232.438H926.27V228.438ZM907.176 230.438V205.242H903.176V230.438H907.176ZM1231.25 284.637V282.637H1229.25V284.637H1231.25ZM1232.13 296.502L1230.15 296.822L1230.16 296.853L1230.17 296.884L1232.13 296.502ZM1234.91 306.609L1233.03 307.293L1233.04 307.303L1234.91 306.609ZM1252.2 328.729L1251.13 330.421L1251.14 330.429L1251.16 330.436L1252.2 328.729ZM1302.29 332.83L1302.85 334.751L1302.86 334.749L1302.87 334.746L1302.29 332.83ZM1325.88 322.43L1327.6 321.413L1326.6 319.715L1324.89 320.693L1325.88 322.43ZM1336.87 341.033L1338 342.682L1339.54 341.625L1338.59 340.016L1336.87 341.033ZM1246.92 356.121L1246.19 357.982L1246.2 357.985L1246.92 356.121ZM1224.37 340.887L1222.9 342.247L1222.9 342.252L1222.91 342.258L1224.37 340.887ZM1209.57 315.691L1207.68 316.351L1207.69 316.359L1207.69 316.368L1209.57 315.691ZM1208.84 249.92L1210.74 250.523L1210.75 250.518L1208.84 249.92ZM1222.31 224.725L1220.78 223.44L1220.78 223.442L1222.31 224.725ZM1304.35 206.561L1303.51 208.376L1303.52 208.383L1303.54 208.389L1304.35 206.561ZM1323.1 220.33L1321.56 221.608L1321.57 221.622L1321.58 221.636L1323.1 220.33ZM1334.08 239.812L1332.18 240.445L1332.19 240.456L1332.19 240.468L1334.08 239.812ZM1339.36 262.225L1337.37 262.479L1337.37 262.486L1339.36 262.225ZM1340.23 273.504L1338.24 273.555L1338.24 273.581L1338.24 273.606L1340.23 273.504ZM1340.53 284.637V286.637H1342.53V284.637H1340.53ZM1257.18 226.922L1257.88 228.795L1257.89 228.791L1257.9 228.787L1257.18 226.922ZM1245.17 234.686L1246.58 236.1L1246.59 236.09L1246.6 236.079L1245.17 234.686ZM1237.11 246.99L1235.27 246.216L1235.26 246.232L1235.25 246.247L1237.11 246.99ZM1232.71 263.396L1230.74 263.078L1230.37 265.396H1232.71V263.396ZM1311.38 263.396V265.396H1313.52L1313.37 263.259L1311.38 263.396ZM1308.59 247.723L1306.67 248.272L1306.68 248.29L1306.68 248.308L1308.59 247.723ZM1229.25 284.637C1229.25 289.023 1229.55 293.087 1230.15 296.822L1234.1 296.182C1233.54 292.691 1233.25 288.844 1233.25 284.637H1229.25ZM1230.17 296.884C1230.87 300.497 1231.82 303.968 1233.03 307.293L1236.79 305.926C1235.66 302.806 1234.76 299.538 1234.09 296.12L1230.17 296.884ZM1233.04 307.303C1236.78 317.432 1242.81 325.179 1251.13 330.421L1253.26 327.036C1245.77 322.317 1240.27 315.318 1236.79 305.915L1233.04 307.303ZM1251.16 330.436C1259.5 335.524 1268.9 338.053 1279.3 338.053V334.053C1269.58 334.053 1260.91 331.699 1253.24 327.021L1251.16 330.436ZM1279.3 338.053C1287.39 338.053 1295.24 336.953 1302.85 334.751L1301.74 330.909C1294.5 333.004 1287.02 334.053 1279.3 334.053V338.053ZM1302.87 334.746C1310.56 332.449 1318.56 328.915 1326.87 324.166L1324.89 320.693C1316.79 325.32 1309.07 328.719 1301.72 330.914L1302.87 334.746ZM1324.16 323.447L1335.14 342.05L1338.59 340.016L1327.6 321.413L1324.16 323.447ZM1335.73 339.384C1325.91 346.128 1316.07 351.115 1306.21 354.368L1307.46 358.167C1317.72 354.78 1327.9 349.61 1338 342.682L1335.73 339.384ZM1306.21 354.368C1296.36 357.62 1286.12 359.248 1275.49 359.248V363.248C1286.54 363.248 1297.2 361.555 1307.46 358.167L1306.21 354.368ZM1275.49 359.248C1265.46 359.248 1256.19 357.578 1247.65 354.257L1246.2 357.985C1255.24 361.501 1265.01 363.248 1275.49 363.248V359.248ZM1247.66 354.26C1239.24 350.949 1231.96 346.037 1225.82 339.515L1222.91 342.258C1229.46 349.213 1237.23 354.457 1246.19 357.982L1247.66 354.26ZM1225.83 339.527C1219.79 333.016 1214.99 324.861 1211.45 315.015L1207.69 316.368C1211.38 326.639 1216.44 335.281 1222.9 342.247L1225.83 339.527ZM1211.46 315.032C1208.03 305.231 1206.3 293.744 1206.3 280.535H1202.3C1202.3 294.084 1204.08 306.034 1207.68 316.351L1211.46 315.032ZM1206.3 280.535C1206.3 269.884 1207.78 259.883 1210.74 250.523L1206.93 249.317C1203.84 259.097 1202.3 269.507 1202.3 280.535H1206.3ZM1210.75 250.518C1213.7 241.077 1218.08 232.917 1223.85 226.007L1220.78 223.442C1214.64 230.79 1210.03 239.427 1206.93 249.322L1210.75 250.518ZM1223.85 226.009C1229.71 219.014 1236.94 213.475 1245.58 209.394L1243.87 205.778C1234.74 210.095 1227.03 215.983 1220.78 223.44L1223.85 226.009ZM1245.58 209.394C1254.15 205.344 1264.2 203.287 1275.78 203.287V199.287C1263.73 199.287 1253.07 201.429 1243.87 205.778L1245.58 209.394ZM1275.78 203.287C1287.02 203.287 1296.23 205.018 1303.51 208.376L1305.18 204.745C1297.23 201.072 1287.4 199.287 1275.78 199.287V203.287ZM1303.54 208.389C1311 211.698 1316.99 216.112 1321.56 221.608L1324.63 219.052C1319.63 213.025 1313.12 208.259 1305.16 204.732L1303.54 208.389ZM1321.58 221.636C1326.29 227.096 1329.82 233.36 1332.18 240.445L1335.98 239.18C1333.46 231.617 1329.67 224.892 1324.61 219.024L1321.58 221.636ZM1332.19 240.468C1334.69 247.663 1336.41 255 1337.37 262.479L1341.34 261.97C1340.35 254.215 1338.56 246.61 1335.97 239.157L1332.19 240.468ZM1337.37 262.486C1337.85 266.126 1338.14 269.815 1338.24 273.555L1342.23 273.453C1342.13 269.575 1341.84 265.745 1341.34 261.964L1337.37 262.486ZM1338.24 273.606C1338.43 277.383 1338.53 281.059 1338.53 284.637H1342.53C1342.53 280.987 1342.43 277.242 1342.23 273.401L1338.24 273.606ZM1340.53 282.637H1231.25V286.637H1340.53V282.637ZM1273.88 222.139C1267.34 222.139 1261.52 223.094 1256.45 225.057L1257.9 228.787C1262.41 227.039 1267.72 226.139 1273.88 226.139V222.139ZM1256.48 225.049C1251.53 226.905 1247.27 229.652 1243.73 233.292L1246.6 236.079C1249.7 232.884 1253.45 230.454 1257.88 228.795L1256.48 225.049ZM1243.75 233.271C1240.23 236.797 1237.4 241.124 1235.27 246.216L1238.95 247.765C1240.92 243.091 1243.47 239.215 1246.58 236.1L1243.75 233.271ZM1235.25 246.247C1233.24 251.287 1231.74 256.901 1230.74 263.078L1234.69 263.715C1235.65 257.782 1237.08 252.459 1238.97 247.733L1235.25 246.247ZM1232.71 265.396H1311.38V261.396H1232.71V265.396ZM1313.37 263.259C1312.97 257.463 1312.02 252.086 1310.51 247.137L1306.68 248.308C1308.1 252.93 1309 258.002 1309.38 263.534L1313.37 263.259ZM1310.52 247.173C1309.08 242.144 1306.81 237.739 1303.68 233.991L1300.61 236.552C1303.35 239.835 1305.37 243.731 1306.67 248.272L1310.52 247.173ZM1303.68 233.991C1300.53 230.21 1296.51 227.294 1291.65 225.228L1290.09 228.909C1294.41 230.749 1297.9 233.301 1300.61 236.552L1303.68 233.991ZM1291.65 225.228C1286.74 223.14 1280.8 222.139 1273.88 222.139V226.139C1280.44 226.139 1285.81 227.091 1290.09 228.909L1291.65 225.228Z" fill="white"/>
<defs>
<clipPath id="clip0_244_10">
<rect width="500" height="500" rx="250" fill="white"/>
</clipPath>
</defs>
</svg>
