<svg width="21" height="21" viewBox="0 0 21 21" fill="none" xmlns="http://www.w3.org/2000/svg">
<path d="M8.96939 3.19554L8.96956 3.19493C9.14515 2.59727 9.40787 2.03175 9.75594 1.49935M8.96939 3.19554L10.1746 1.77274M8.96939 3.19554C8.79462 3.79321 8.70828 4.41854 8.70828 5.06953C8.70828 6.90586 9.35673 8.48294 10.6452 9.77144C11.9337 11.0599 13.5108 11.7084 15.3471 11.7084C15.9836 11.7084 16.614 11.6159 17.237 11.4322L17.2372 11.4321C17.858 11.2488 18.4207 10.9918 18.9213 10.6581C19.0566 10.5679 19.1695 10.5354 19.2655 10.532C19.3616 10.5286 19.4769 10.553 19.6191 10.6337C19.753 10.71 19.8236 10.7923 19.863 10.8742C19.9037 10.9588 19.9296 11.082 19.909 11.2668L19.9086 11.2716C19.656 13.7616 18.6022 15.8146 16.737 17.4549C14.8663 19.0994 12.7049 19.9167 10.2314 19.9167C7.49982 19.9167 5.20728 18.9769 3.32294 17.0926C1.4394 15.209 0.5 12.9169 0.5 10.1852C0.5 7.69049 1.30935 5.54001 2.93193 3.70969L8.96939 3.19554ZM9.75594 1.49935C9.75599 1.49927 9.75605 1.49919 9.7561 1.49911L10.1746 1.77274M9.75594 1.49935C9.75589 1.49944 9.75583 1.49952 9.75578 1.4996L10.1746 1.77274M9.75594 1.49935C9.85959 1.34035 9.89282 1.21661 9.89497 1.12191C9.89705 1.03061 9.87135 0.926139 9.78698 0.799579C9.69647 0.663814 9.60462 0.590143 9.51743 0.549899C9.43036 0.509716 9.31533 0.487804 9.15449 0.507059M10.1746 1.77274C10.4588 1.33695 10.4683 0.920118 10.203 0.522229C9.93775 0.12434 9.56828 -0.0461835 9.0946 0.0106577M9.15449 0.507059C9.15461 0.507043 9.15474 0.507027 9.15487 0.507012L9.0946 0.0106577M9.15449 0.507059C6.61802 0.815141 4.55269 1.88224 2.932 3.70962L9.0946 0.0106577M9.15449 0.507059C9.15438 0.507071 9.15428 0.507084 9.15417 0.507096L9.0946 0.0106577" fill="#9536B6" stroke="#6A2782"/>
</svg>
