<svg width="25" height="25" viewBox="0 0 25 25" fill="none" xmlns="http://www.w3.org/2000/svg">
<path d="M21.048 10.524C21.048 4.7211 16.3269 0 10.524 0C4.7211 0 0 4.7211 0 10.524C0 16.3269 4.7211 21.048 10.524 21.048C12.7958 21.0505 15.0068 20.3139 16.8232 18.9495L21.048 10.524ZM22.8333 24.2524L17.1768 18.5959L16.8699 18.289L16.5229 18.5497C14.7932 19.849 12.6879 20.5504 10.5245 20.548H10.524C4.99725 20.548 0.5 16.0508 0.5 10.524C0.5 4.99725 4.99725 0.5 10.524 0.5C16.0508 0.5 20.548 4.99725 20.548 10.524V10.5245C20.5504 12.6879 19.849 14.7932 18.5497 16.5229L18.289 16.8699L18.5959 17.1768L24.2524 22.8333C24.4183 23.0236 24.5067 23.2696 24.4996 23.5223C24.4924 23.7792 24.3871 24.0237 24.2054 24.2054C24.0237 24.3871 23.7792 24.4924 23.5223 24.4996C23.2696 24.5067 23.0236 24.4183 22.8333 24.2524ZM2.50686 10.524L2.50686 10.5246C2.50941 12.6499 3.35482 14.6875 4.85767 16.1903C6.36051 17.6932 8.39806 18.5386 10.5234 18.5411H10.524C12.1096 18.5411 13.6597 18.0709 14.9781 17.19C16.2965 16.3091 17.3241 15.057 17.9309 13.592C18.5377 12.1271 18.6964 10.5151 18.3871 8.95993C18.0778 7.40476 17.3142 5.97624 16.193 4.85502C15.0718 3.73381 13.6432 2.97025 12.0881 2.6609C10.5329 2.35156 8.92091 2.51033 7.45597 3.11713C5.99103 3.72392 4.73892 4.7515 3.85799 6.06991C2.97705 7.38833 2.50686 8.93836 2.50686 10.524Z" fill="white" stroke="white"/>
</svg>
