<svg width="21" height="21" viewBox="0 0 21 21" fill="none" xmlns="http://www.w3.org/2000/svg">
<path d="M4.45391 3.49894L4.45409 3.49912L5.43781 4.48284L5.43779 4.48285L5.44012 4.48512C5.69718 4.73559 5.69775 5.17099 5.43553 5.44012C5.18226 5.70005 4.74843 5.70339 4.48284 5.43781L3.49913 4.45409L3.49894 4.45391C3.43618 4.39128 3.38639 4.31688 3.35241 4.23498C3.31844 4.15308 3.30095 4.06528 3.30095 3.97661C3.30095 3.88794 3.31844 3.80014 3.35241 3.71824C3.38639 3.63634 3.43618 3.56194 3.49894 3.49931L3.49931 3.49894C3.56194 3.43618 3.63634 3.38639 3.71824 3.35241C3.80014 3.31844 3.88794 3.30095 3.97661 3.30095C4.06528 3.30095 4.15308 3.31844 4.23498 3.35241C4.31688 3.38639 4.39128 3.43618 4.45391 3.49894ZM15.9336 14.9787L15.9338 14.9789L16.9175 15.9626L16.9177 15.9628C16.9805 16.0254 17.0303 16.0998 17.0643 16.1817C17.0982 16.2636 17.1157 16.3514 17.1157 16.4401C17.1157 16.5287 17.0982 16.6165 17.0643 16.6984C17.0303 16.7803 16.9805 16.8547 16.9177 16.9174L16.9153 16.9198C16.662 17.1798 16.2282 17.1831 15.9626 16.9175L14.9789 15.9338L14.9787 15.9336C14.9159 15.871 14.8661 15.7966 14.8321 15.7147C14.7982 15.6328 14.7807 15.545 14.7807 15.4563C14.7807 15.3677 14.7982 15.2799 14.8321 15.198C14.8661 15.1161 14.9159 15.0417 14.9787 14.979L14.979 14.9787C15.0417 14.9159 15.1161 14.8661 15.198 14.8321C15.2799 14.7982 15.3677 14.7807 15.4563 14.7807C15.545 14.7807 15.6328 14.7982 15.7147 14.8321C15.7966 14.8661 15.871 14.9159 15.9336 14.9787ZM16.9177 4.45391L16.9175 4.45409L15.9338 5.43781L15.9338 5.43779L15.9315 5.44012C15.6811 5.69718 15.2457 5.69775 14.9765 5.43553C14.7166 5.18226 14.7133 4.74843 14.9789 4.48284L15.9626 3.49913L15.9628 3.49894C16.0254 3.43618 16.0998 3.38639 16.1817 3.35241C16.2636 3.31844 16.3514 3.30095 16.4401 3.30095C16.5287 3.30095 16.6165 3.31844 16.6984 3.35241C16.7803 3.38639 16.8547 3.43618 16.9174 3.49894L16.9177 3.49931C16.9805 3.56194 17.0303 3.63634 17.0643 3.71824C17.0982 3.80014 17.1157 3.88794 17.1157 3.97661C17.1157 4.06528 17.0982 4.15308 17.0643 4.23498C17.0303 4.31688 16.9805 4.39128 16.9177 4.45391ZM5.43799 15.9336L5.43781 15.9338L4.45409 16.9175L4.45408 16.9175L4.45181 16.9198C4.20134 17.1769 3.76594 17.1775 3.49681 16.9153C3.23688 16.662 3.23354 16.2282 3.49912 15.9626L4.48284 14.9789L4.48302 14.9787C4.54565 14.9159 4.62005 14.8661 4.70195 14.8321C4.78385 14.7982 4.87165 14.7807 4.96032 14.7807C5.04899 14.7807 5.13679 14.7982 5.21869 14.8321C5.30059 14.8661 5.37499 14.9159 5.43762 14.9787L5.43799 14.979C5.50075 15.0417 5.55054 15.1161 5.58452 15.198C5.61849 15.2799 5.63598 15.3677 5.63598 15.4563C5.63598 15.545 5.61849 15.6328 5.58452 15.7147C5.55054 15.7966 5.50075 15.871 5.43799 15.9336ZM5.81818 10.2083C5.81818 7.78504 7.78504 5.81818 10.2083 5.81818C12.6316 5.81818 14.5985 7.78504 14.5985 10.2083C14.5985 12.6316 12.6316 14.5985 10.2083 14.5985C7.78504 14.5985 5.81818 12.6316 5.81818 10.2083ZM2.78409 10.8864H0.92803C0.555685 10.8864 0.25 10.5807 0.25 10.2083C0.25 9.83599 0.555685 9.5303 0.92803 9.5303H2.78409C3.15644 9.5303 3.46212 9.83599 3.46212 10.2083C3.46212 10.5807 3.15644 10.8864 2.78409 10.8864ZM19.4886 10.8864H17.6326C17.2602 10.8864 16.9545 10.5807 16.9545 10.2083C16.9545 9.83599 17.2602 9.5303 17.6326 9.5303H19.4886C19.861 9.5303 20.1667 9.83599 20.1667 10.2083C20.1667 10.5807 19.861 10.8864 19.4886 10.8864ZM9.5303 2.78409V0.92803C9.5303 0.555685 9.83599 0.25 10.2083 0.25C10.5807 0.25 10.8864 0.555685 10.8864 0.92803V2.78409C10.8864 3.15644 10.5807 3.46212 10.2083 3.46212C9.83599 3.46212 9.5303 3.15644 9.5303 2.78409ZM9.5303 19.4886V17.6326C9.5303 17.2602 9.83599 16.9545 10.2083 16.9545C10.5807 16.9545 10.8864 17.2602 10.8864 17.6326V19.4886C10.8864 19.861 10.5807 20.1667 10.2083 20.1667C9.83599 20.1667 9.5303 19.861 9.5303 19.4886Z" fill="#FFED47" stroke="#CCBD3B" stroke-width="0.5"/>
</svg>
