<svg width="38" height="30" viewBox="0 0 38 30" fill="none" xmlns="http://www.w3.org/2000/svg">
<path d="M29.1762 13.2387L16.7613 0.82377C16.2338 0.296323 15.5185 3.90045e-06 14.7725 0H2.8125C1.25918 0 0 1.25918 0 2.8125V14.7725C3.90045e-06 15.5185 0.296323 16.2338 0.82377 16.7613L13.2387 29.1762C14.337 30.2746 16.1178 30.2746 17.2162 29.1762L29.1762 17.2162C30.2746 16.1179 30.2746 14.3371 29.1762 13.2387ZM6.5625 9.375C5.00918 9.375 3.75 8.11582 3.75 6.5625C3.75 5.00918 5.00918 3.75 6.5625 3.75C8.11582 3.75 9.375 5.00918 9.375 6.5625C9.375 8.11582 8.11582 9.375 6.5625 9.375ZM36.6762 17.2162L24.7162 29.1762C23.6179 30.2746 21.8371 30.2746 20.7387 29.1762L20.7176 29.1551L30.9164 18.9564C31.9124 17.9603 32.4609 16.6361 32.4609 15.2275C32.4609 13.8189 31.9124 12.4946 30.9164 11.4986L19.4178 0H22.2725C23.0185 3.90045e-06 23.7338 0.296323 24.2613 0.82377L36.6762 13.2387C37.7746 14.3371 37.7746 16.1179 36.6762 17.2162Z" fill="#868686"/>
</svg>
